<?xml version="1.0" standalone="no"?>
<!DOCTYPE svg PUBLIC "-//W3C//DTD SVG 1.1//EN" "http://www.w3.org/Graphics/SVG/1.1/DTD/svg11.dtd" >
<svg xmlns="http://www.w3.org/2000/svg">
<metadata></metadata>
<defs>
<font id="pf_beausans_proitalic" horiz-adv-x="1171" >
<font-face units-per-em="2048" ascent="1536" descent="-512" />
<missing-glyph horiz-adv-x="552" />
<glyph unicode="&#xfb01;" horiz-adv-x="1097" d="M90 -379l182 1313h-149q-18 0 -22.5 8t-0.5 21l6 47q2 16 8.5 23t24.5 11l154 29l14 105q10 72 39 132t79 104t124 68.5t178 24.5q18 0 49 -1t70 -5t83 -12t89 -23q10 -4 11 -12t-3 -20l-22 -91q-4 -16 -12.5 -19t-20.5 1q-33 8 -71 13t-72.5 8.5t-63.5 5.5t-43 2 q-68 0 -111 -14.5t-70.5 -39t-40 -55.5t-18.5 -63l-14 -107h569q18 0 23.5 -7t3.5 -24l-143 -1013q-4 -20 -11.5 -25.5t-25.5 -5.5h-109q-16 0 -23.5 5t-5.5 26l127 903h-428l-168 -1258q-2 -20 -9 -28t-23 -15l-123 -43q-37 -16 -31 31z" />
<glyph unicode="&#xfb02;" horiz-adv-x="1185" d="M90 -379l182 1313h-149q-18 0 -22.5 8t-0.5 21l6 47q2 16 8.5 23t24.5 11l154 29l14 109q10 72 39 132t79 104t125 68.5t179 24.5q33 0 111 -6t159 -28l97 24q16 0 23 -5t3 -26l-174 -1237q-8 -59 3.5 -74.5t52.5 -15.5q18 0 36.5 1t34.5 3q20 2 25 -20l14 -86 q4 -29 -24 -39q-47 -16 -92.5 -20.5t-77.5 -4.5q-100 0 -134 50.5t-20 154.5l164 1155q-63 10 -120.5 16.5t-86.5 6.5q-68 0 -112 -14.5t-71.5 -39t-40 -56t-18.5 -64.5l-14 -111h264q18 0 22.5 -8t4.5 -23l-13 -81q-4 -16 -9 -22.5t-25 -6.5h-267l-168 -1258q-2 -20 -9 -28 t-23 -15l-123 -43q-37 -16 -31 31z" />
<glyph unicode="&#xfb03;" horiz-adv-x="1667" d="M88 -385l184 1317h-149q-29 0 -25 24l8 43q4 23 8.5 31t26.5 12l150 31q4 20 7 41t7 41q12 72 41 131.5t79 102.5t124 67.5t174 24.5q53 0 133 -9.5t166 -31.5q53 35 118.5 54t157.5 19q47 0 127 -8t166 -32q16 -4 15.5 -13.5t-4.5 -19.5l-27 -92q-4 -16 -11.5 -18.5 t-21.5 1.5q-33 6 -69.5 12.5t-71.5 9.5t-63.5 5t-45.5 2q-66 0 -109.5 -14.5t-71.5 -39t-41 -55t-19 -63.5l-19 -113h576q18 0 23 -6t3 -20l-145 -1020q-4 -18 -11.5 -23.5t-23.5 -5.5h-111q-18 0 -24 6t-4 23q33 227 63.5 450t61.5 453h-426l-156 -1149q-4 -20 -10 -28.5 t-23 -14.5l-123 -43q-37 -12 -30 27l170 1208h-400l-166 -1256q-6 -33 -32 -41l-125 -43q-16 -6 -25.5 -3t-5.5 26zM465 1075h397l17 109q4 35 14 66.5t22 60.5q-57 8 -110 12t-80 4q-70 0 -116 -14.5t-73.5 -39t-40 -56t-18.5 -66.5z" />
<glyph unicode="&#xfb04;" horiz-adv-x="1757" d="M88 -385l184 1317h-149q-29 0 -25 24l6 54q2 27 33 32l154 31l14 84q20 147 121.5 239.5t308.5 92.5q43 0 121 -9.5t168 -31.5q103 72 281 72q33 0 110.5 -6.5t159.5 -28.5l96 24q16 0 23.5 -5t3.5 -25l-174 -1237q-8 -59 3 -74.5t52 -15.5q18 0 36.5 1t35.5 3 q20 2 24 -21l15 -86q4 -29 -25 -39q-47 -16 -92 -20t-78 -4q-100 0 -134 50t-20 154l164 1156q-63 10 -121.5 15t-91.5 5q-66 0 -110.5 -14.5t-72.5 -39t-41 -55t-17 -63.5l-17 -119h269q18 0 22 -6t2 -18l-12 -90q-2 -16 -8.5 -22.5t-24.5 -6.5h-268l-156 -1149 q-4 -20 -10 -28.5t-23 -14.5l-123 -43q-37 -12 -30 27l170 1208h-400l-166 -1256q-6 -33 -32 -41l-125 -43q-16 -6 -25.5 -3t-5.5 26zM465 1075h397q10 59 18.5 125t37.5 117q-59 10 -114.5 14t-82.5 4q-68 0 -112 -15t-71.5 -40t-40 -56.5t-18.5 -64.5z" />
<glyph horiz-adv-x="2048" />
<glyph horiz-adv-x="2048" />
<glyph unicode="&#xd;" horiz-adv-x="2048" />
<glyph unicode=" "  horiz-adv-x="552" />
<glyph unicode="&#x09;" horiz-adv-x="552" />
<glyph unicode="&#xa0;" horiz-adv-x="552" />
<glyph unicode="!" horiz-adv-x="536" d="M100 94q0 33 12.5 61.5t34 50t48 34t57.5 12.5q51 0 83 -32t32 -81q0 -63 -45.5 -110t-108.5 -47q-51 0 -82 31.5t-31 80.5zM219 436l96 965q0 10 8.5 21.5t26.5 11.5h133q20 0 24.5 -11.5t2.5 -21.5l-174 -959q-4 -20 -13.5 -26t-31.5 -6h-41q-35 0 -31 26z" />
<glyph unicode="&#x22;" horiz-adv-x="706" d="M227 930l23 477q0 10 7 21.5t28 11.5h147q23 0 28 -11.5t3 -21.5l-113 -473q-6 -18 -15 -25.5t-34 -7.5h-41q-33 0 -33 29zM512 930l23 477q0 10 8 21.5t26 11.5h148q20 0 26.5 -11.5t1.5 -21.5l-112 -473q-4 -18 -14.5 -25.5t-32.5 -7.5h-41q-20 0 -26.5 7t-6.5 22z" />
<glyph unicode="#" d="M77 304q-3 5 1 22l20 57q4 14 11.5 21.5t23.5 7.5h170l127 381h-176q-16 0 -19.5 6t1.5 22l20 58q4 14 11 21t24 7h178l90 262q4 16 9 20.5t20 4.5h67q16 0 22.5 -4t2.5 -21l-88 -262h295l88 262q4 16 10 20.5t19 4.5h67q16 0 23.5 -4t3.5 -21l-90 -262h170q29 0 22 -28 l-22 -58q-4 -16 -10.5 -22t-22.5 -6h-174l-131 -381h178q29 0 18 -29l-18 -57q-8 -27 -35 -27h-180q-2 -6 -15.5 -47t-31 -90t-31.5 -90t-16 -47q-4 -16 -7.5 -20.5t-19.5 -4.5h-70q-14 0 -21 4t-3 21l92 274h-293l-92 -274q-6 -16 -10 -20.5t-21 -4.5h-69q-12 0 -20.5 4 t-4.5 21l92 274h-166q-16 0 -19 5zM426 412h291l129 381h-293z" />
<glyph unicode="$" horiz-adv-x="1163" d="M78 133l49 94q14 23 35 13q59 -29 124.5 -48.5t131.5 -31.5l74 524q-240 121 -240 332q0 147 87 248.5t253 121.5l22 173q4 20 11.5 24t23.5 4h31q18 0 25.5 -4t3.5 -24l-248 -1760q-4 -18 -11.5 -22t-25.5 -4h-31q-16 0 -23.5 4t-2.5 22l26 199q-86 10 -164.5 33.5 t-144.5 62.5q-23 10 -6 39zM428 1022q0 -47 22.5 -81t69.5 -64l47 329q-70 -20 -104.5 -69.5t-34.5 -114.5zM535 -201l247 1760q4 20 12.5 24t24.5 4h29q18 0 26.5 -4t4.5 -24l-23 -164q59 -8 115.5 -24.5t115.5 -45.5q20 -10 9 -31l-49 -106q-10 -20 -29 -12 q-53 20 -99.5 32.5t-87.5 20.5l-67 -471q59 -31 112.5 -62.5t92.5 -73.5t61.5 -95.5t22.5 -127.5q0 -92 -30 -162.5t-83 -122t-126 -82t-159 -42.5h2l-26 -191q-4 -18 -12.5 -22t-26.5 -4h-29q-16 0 -24.5 4t-3.5 22zM680 160q96 23 146.5 79t50.5 148q0 61 -36 105.5 t-102 80.5z" />
<glyph unicode="%" horiz-adv-x="1781" d="M176 862q0 113 27.5 210t80 167t127.5 110t171 40q164 0 236.5 -93.5t72.5 -246.5q0 -115 -26.5 -209.5t-79 -162t-129 -105t-177.5 -37.5q-150 0 -226.5 87t-76.5 240zM330 868q0 -43 8 -81.5t26.5 -67.5t50 -46.5t81.5 -17.5q72 0 120 39t76.5 97.5t40.5 128t12 131.5 q0 43 -8 83t-26.5 68.5t-51 46t-81.5 17.5q-72 0 -119 -39t-76 -97.5t-41 -129t-12 -132.5zM393 -16l1012 1413q10 16 17.5 22t23.5 6h70q10 0 16 -6t-4 -22l-1012 -1413q-10 -16 -20.5 -22.5t-26.5 -6.5h-61q-31 0 -15 29zM1014 313q0 115 27.5 211.5t80 167t127 110.5 t170.5 40q164 0 237 -93.5t73 -248.5q0 -115 -28 -209t-80 -162t-129 -104.5t-177 -36.5q-147 0 -224 86t-77 239zM1167 322q0 -43 7.5 -82t26 -68t50 -46t80.5 -17q74 0 122 38.5t77 97t41 127t12 130.5q0 88 -36 151.5t-132 63.5q-72 0 -119 -39t-75.5 -97.5t-41 -128 t-12.5 -130.5z" />
<glyph unicode="&#x26;" horiz-adv-x="1437" d="M127 260q0 86 29.5 165t82 148.5t122 128t149.5 101.5q-47 68 -74.5 148.5t-27.5 156.5q0 88 28.5 153.5t77.5 109.5t112.5 65.5t135.5 21.5q133 0 216 -71.5t83 -194.5q0 -80 -28.5 -144.5t-75 -116.5t-104.5 -93t-118 -76q51 -88 92 -148.5t82 -128.5q78 113 166 203 t207 125q25 6 45.5 10t42.5 6q23 2 23 -16l12 -96q2 -23 -25 -27q-76 -12 -132 -45t-101 -78t-81 -99t-71 -110q16 -29 54 -83t77 -107q45 -63 95 -135q6 -10 2 -21.5t-19 -11.5h-131q-18 0 -28.5 4t-20.5 19l-135 190q-92 -102 -201.5 -170t-251.5 -68q-152 0 -230.5 75 t-78.5 210zM295 297q0 -90 49 -129t131 -39q84 0 174 60.5t158 152.5q-55 86 -109.5 171t-105.5 171q-59 -35 -112.5 -75t-94.5 -87t-65.5 -103.5t-24.5 -121.5zM575 1116q0 -61 29 -125.5t60 -113.5q37 20 77.5 49.5t76.5 66.5t59.5 82t23.5 99q0 53 -32.5 96t-106.5 43 q-84 0 -135.5 -55.5t-51.5 -141.5z" />
<glyph unicode="'" horiz-adv-x="428" d="M231 930l23 477q0 10 8 21.5t27 11.5h147q20 0 26.5 -11.5t2.5 -21.5l-113 -473q-4 -18 -14 -25.5t-35 -7.5h-41q-18 0 -24.5 7t-6.5 22z" />
<glyph unicode="(" horiz-adv-x="575" d="M92 520q0 156 40 293t107.5 257t157.5 223.5t193 191.5q16 14 35 4l51 -47q14 -12 -2 -27q-188 -195 -287.5 -416t-99.5 -473q0 -180 41 -331.5t137 -282.5q10 -14 -4 -23l-62 -47q-12 -10 -18 -8t-14 10q-57 63 -107.5 138t-87.5 160t-58.5 179.5t-21.5 198.5z" />
<glyph unicode=")" horiz-adv-x="583" d="M2 -113q-14 10 2 27q188 195 287.5 417t99.5 472q0 180 -42 331.5t-138 282.5q-8 14 4 25l66 45q10 8 16 6t14 -8q57 -66 107.5 -140.5t87.5 -158.5t58.5 -178.5t21.5 -198.5q0 -156 -40 -293t-107.5 -257t-159 -223.5t-191.5 -191.5q-18 -18 -35 -4z" />
<glyph unicode="*" horiz-adv-x="946" d="M242 1118l34 80q12 33 43 16l220 -100l18 270q-2 10 5 17.5t22 7.5h86q18 0 21 -8t1 -19l-59 -268l250 105q18 6 25 2t12 -17l16 -90q4 -14 -4 -20.5t-19 -8.5l-262 -69l140 -203q10 -14 7 -22.5t-18 -18.5l-69 -49q-23 -14 -31 -12t-12 18l-103 227l-168 -233 q-20 -27 -39 -8l-63 55q-18 16 0 41l194 205l-233 65q-29 10 -14 37z" />
<glyph unicode="+" d="M141 651l17 107q4 16 10 25.5t25 9.5h368l55 389q2 20 9.5 25t23.5 5h111q16 0 23.5 -5t4.5 -25l-55 -389h365q18 0 22 -9.5t2 -25.5l-14 -107q-4 -18 -10 -25.5t-27 -7.5h-362l-56 -391q-4 -20 -11 -25t-26 -5h-108q-16 0 -23.5 5t-3.5 25l54 391h-367q-20 0 -24.5 7.5 t-2.5 25.5z" />
<glyph unicode="," horiz-adv-x="473" d="M33 -227l96 463q4 12 12.5 23t24.5 11h168q23 0 29 -11t2 -23l-199 -457q-10 -18 -16.5 -26.5t-24.5 -8.5h-59q-18 0 -27.5 7t-5.5 22z" />
<glyph unicode="-" horiz-adv-x="655" d="M78 516l20 139q2 16 8.5 24.5t24.5 8.5h461q16 0 21 -8t3 -25l-22 -139q-2 -16 -7 -24.5t-24 -8.5h-459q-20 0 -25 8.5t-1 24.5z" />
<glyph unicode="." horiz-adv-x="514" d="M80 100q0 33 13 64t36 53.5t52.5 35.5t60.5 13q55 0 87.5 -33.5t32.5 -87.5q0 -70 -47 -120t-114 -50q-53 0 -87 36t-34 89z" />
<glyph unicode="/" horiz-adv-x="860" d="M-47 -168l878 1733q12 29 41 28h115q10 0 17.5 -6t1.5 -22l-877 -1733q-14 -29 -45 -29h-109q-31 0 -22 29z" />
<glyph unicode="0" d="M96 510q0 180 40 341t117 282.5t190.5 193.5t263.5 72q119 0 205.5 -38t142 -107.5t82 -169t26.5 -224.5q0 -193 -41 -354.5t-120.5 -279t-196.5 -183.5t-268 -66q-225 0 -333 141.5t-108 391.5zM268 508q0 -78 14.5 -146.5t47 -121t87 -83t134.5 -30.5q123 0 206 71.5 t135 181t74.5 237.5t22.5 241q0 80 -14 150.5t-47 124t-87 84t-134 30.5q-123 0 -206 -72.5t-135.5 -182t-75 -239.5t-22.5 -245z" />
<glyph unicode="1" d="M197 33l12 94q2 18 8 26.5t27 8.5h235l146 1034l-234 -37q-20 -4 -25.5 2t-3.5 23l13 80q2 33 37 43l299 88q47 12 79.5 -0.5t24.5 -59.5l-164 -1173h244q18 0 22.5 -8.5t0.5 -26.5l-13 -94q-4 -16 -9 -24.5t-24 -8.5h-651q-18 0 -23 8t-1 25z" />
<glyph unicode="2" d="M78 102q-2 70 49 168.5t170 210.5q88 86 181 149.5t165 106.5q76 43 131 83t91 79t52.5 81t16.5 91q0 84 -65.5 129t-182.5 45q-76 0 -165 -30.5t-165 -84.5q-14 -10 -24 -11t-21 14l-53 81q-12 25 14 43q98 70 212 106t225 36q86 0 158.5 -19.5t126 -59.5t84 -100.5 t30.5 -142.5q0 -78 -27.5 -143.5t-79 -123.5t-124 -109.5t-160.5 -100.5q-63 -35 -131 -81t-129.5 -101.5t-111.5 -120t-79 -135.5h688q18 0 23.5 -8.5t1.5 -24.5l-12 -96q-4 -16 -9.5 -24.5t-25.5 -8.5h-729q-70 0 -97.5 24.5t-27.5 77.5z" />
<glyph unicode="3" d="M66 109q-16 14 2 36l57 86q18 27 47 5q68 -47 156 -73t168 -26q82 0 145.5 22.5t107.5 61.5t67.5 91.5t25.5 111.5q2 49 -16.5 91t-52.5 72.5t-83 48t-110 17.5h-60q-27 0 -37 8.5t-6 38.5l10 64q4 31 15.5 41t34.5 10h49q63 0 118.5 19.5t95.5 52.5t62.5 75t22.5 87 q0 55 -22.5 91t-58.5 57.5t-82 29.5t-93 8q-86 0 -170 -26.5t-154 -67.5q-35 -20 -49 2l-43 90q-4 10 -3 19.5t13 15.5q98 66 216 99.5t229 33.5q88 0 163.5 -20.5t131 -63.5t84 -107.5t22.5 -150.5q-4 -59 -27.5 -110.5t-60.5 -94.5t-84 -73.5t-98 -49.5l-2 -8 q49 -12 91 -38t73.5 -65.5t48 -92t14.5 -117.5q-4 -94 -42 -173t-104.5 -136.5t-159.5 -90.5t-206 -33q-57 0 -118.5 6.5t-122 21.5t-114 40t-91.5 64z" />
<glyph unicode="4" d="M47 391l4 31q4 33 16.5 59.5t41.5 59.5l692 780q25 31 55.5 57.5t67.5 26.5h57q53 0 71.5 -23.5t10.5 -78.5l-119 -840h143q35 0 29 -31l-12 -90q-4 -18 -12.5 -24.5t-24.5 -6.5h-143l-39 -280q-4 -20 -12.5 -25.5t-24.5 -5.5h-111q-16 0 -23 5t-3 26l37 278h-617 q-35 0 -62.5 13.5t-21.5 68.5zM254 471l2 -8h514l98 704l-4 4z" />
<glyph unicode="5" d="M76 113q-16 14 2 37l61 83q10 12 19.5 15.5t29.5 -10.5q66 -51 151 -75t181 -24q82 0 152.5 23.5t122 66.5t80 104.5t28.5 139.5q0 61 -20.5 104.5t-56 71t-83 39.5t-100.5 12q-55 0 -98 -6t-82 -17t-76 -26.5t-80 -34.5q-27 -10 -44 -9t-40 9l-26 13q-20 10 -31.5 29.5 t-1.5 58.5l123 538q14 66 54 93.5t81 27.5h661q20 0 24.5 -8t0.5 -25l-12 -94q-6 -35 -35 -35h-610l-103 -417q92 39 173 51t155 12q88 0 163.5 -23.5t129 -69.5t84 -115.5t30.5 -159.5q0 -119 -43 -215.5t-119.5 -164t-181 -103.5t-227.5 -36q-125 0 -240.5 31t-195.5 109z " />
<glyph unicode="6" d="M100 496q0 178 44 341.5t135.5 289.5t232 202t330.5 76q47 0 112.5 -8t108.5 -27q12 -6 14 -12t-2 -27l-28 -92q-4 -16 -14.5 -18t-28.5 2q-29 8 -77 15t-91 7q-98 0 -182.5 -32.5t-149 -92t-109.5 -142.5t-69 -185q41 14 89 26t97 19.5t96 11.5t88 4q90 0 167 -21.5 t132.5 -67.5t87 -115.5t31.5 -164.5q0 -137 -49 -233t-126 -157.5t-171 -89.5t-184 -28q-246 0 -365 136.5t-119 382.5zM274 467q0 -150 80 -242t228 -92q74 0 139 21.5t112.5 62.5t75 100.5t27.5 137.5q0 104 -64.5 170.5t-199.5 66.5q-94 0 -183.5 -13t-197.5 -46 q-10 -51 -13.5 -94t-3.5 -72z" />
<glyph unicode="7" d="M180.5 12.5q-6.5 12.5 5.5 30.5l768 1174h-721q-18 0 -23 8t-1 26l12 92q4 18 10.5 25.5t24.5 7.5h827q35 0 58.5 -14t15.5 -57l-6 -50q-4 -31 -14.5 -55t-26.5 -49l-737 -1120q-10 -16 -18.5 -23.5t-30.5 -7.5h-123q-14 0 -20.5 12.5z" />
<glyph unicode="8" d="M90 319q0 68 22.5 133.5t62.5 122t97.5 98.5t124.5 64l2 6q-47 18 -79.5 48t-52 65t-28 73t-8.5 70q0 98 43 174t113 127.5t159 78t181 26.5t165 -24.5t123 -68.5t75.5 -103.5t25.5 -129.5q0 -43 -12 -91t-41 -94t-77 -85t-118 -66l-2 -6q113 -37 161 -122t48 -189 q0 -72 -29.5 -150.5t-94 -145.5t-167 -110t-247.5 -43q-115 0 -199 27t-139.5 73t-82 108.5t-26.5 133.5zM270 350q0 -43 14.5 -83t47.5 -70.5t86 -48t131 -17.5q98 0 165.5 29.5t108.5 75t58.5 98.5t17.5 100q0 55 -21.5 96t-59.5 69t-88 41t-107 13q-61 0 -124 -19.5 t-114 -58t-83 -95t-32 -130.5zM406 985q0 -84 67.5 -133t165.5 -49q57 0 111.5 18.5t95.5 51t66.5 78.5t25.5 102q0 86 -59.5 139t-176.5 53q-68 0 -123 -21.5t-94 -56t-59 -83t-20 -99.5z" />
<glyph unicode="9" d="M137 899q0 137 49.5 233.5t126 158t172 89t185.5 27.5q246 0 363.5 -136t117.5 -382q0 -178 -44 -342t-135 -290t-230.5 -201.5t-329.5 -75.5q-47 0 -113 8t-109 26q-14 6 -16 12.5t4 26.5l31 92q4 16 13 18.5t28 -1.5q29 -8 77 -15.5t91 -7.5q98 0 181 33t148.5 92.5 t110.5 142t70 185.5q-84 -31 -186.5 -46.5t-184.5 -15.5q-90 0 -167 21.5t-133 68t-88 115t-32 164.5zM315 930q0 -104 65 -171t200 -67q96 0 186 13.5t197 46.5q10 51 12 94t2 72q0 150 -80 241.5t-227 91.5q-74 0 -138.5 -21.5t-112.5 -62.5t-76 -101t-28 -136z" />
<glyph unicode=":" horiz-adv-x="532" d="M90 123q10 61 56.5 103t105.5 42q61 0 96 -40t25 -103q-8 -61 -55.5 -102t-106.5 -41t-94 40.5t-27 100.5zM205 924q8 59 54.5 101t105.5 42q61 0 96 -41t24 -102q-8 -61 -55 -103.5t-106 -42.5t-94 41t-25 105z" />
<glyph unicode=";" horiz-adv-x="520" d="M49 -227l96 463q4 12 12.5 23t26.5 11h168q23 0 29 -11t2 -23l-199 -457q-10 -18 -16 -26.5t-27 -8.5h-59q-18 0 -27.5 7t-5.5 22zM223 924q8 59 55.5 101t106.5 42t93 -41t26 -102t-54.5 -103.5t-105.5 -42.5t-95 41t-26 105z" />
<glyph unicode="&#x3c;" d="M143 668q0 4 5.5 31.5t5.5 31.5q4 27 16 38t41 26l942 424q20 8 26.5 0.5t4.5 -23.5l-15 -111q-4 -18 -11 -29.5t-23 -19.5l-760 -338l655 -323q20 -12 26.5 -21.5t2.5 -31.5l-17 -105q-2 -10 -10 -17t-20 -1l-828 419q-18 10 -29.5 19.5t-11.5 30.5z" />
<glyph unicode="=" d="M162 443.5q-4 7.5 0 25.5l12 98q4 16 10 24.5t23 8.5h821q20 0 23.5 -8t-0.5 -25l-13 -98q-4 -18 -9 -25.5t-23 -7.5h-822q-18 0 -22 7.5zM213 831l12 101q4 16 10.5 23.5t22.5 7.5h821q20 0 23.5 -7.5t-0.5 -23.5l-12 -101q-4 -16 -9.5 -24t-23.5 -8h-821q-18 0 -22.5 8 t-0.5 24z" />
<glyph unicode="&#x3e;" d="M82 217l16 119q4 23 12.5 33t30.5 22l748 324l-664 338q-16 8 -20 19t-2 28l16 96q2 16 9.5 23.5t23.5 -0.5l827 -424q23 -14 33 -25.5t6 -38.5q0 -4 -5 -31.5t-5 -31.5q-4 -20 -18.5 -29.5t-36.5 -20.5l-942 -419q-16 -6 -23.5 1t-5.5 17z" />
<glyph unicode="?" horiz-adv-x="1042" d="M217 1264q-10 27 16 43q49 37 105.5 63.5t113 44t110.5 25.5t102 8q86 0 157.5 -18.5t124.5 -57.5t83 -98.5t30 -138.5q0 -70 -22.5 -126.5t-59.5 -105.5t-84 -90t-96 -80q-43 -35 -86 -67.5t-77 -67.5t-58.5 -73t-30.5 -81l-10 -57q-4 -18 -8.5 -22.5t-16.5 -4.5h-125 q-14 0 -20.5 5.5t-4.5 21.5l11 64q8 70 39.5 123t74.5 97t93.5 82t99.5 74q86 63 143.5 136t57.5 147q0 33 -10.5 64.5t-36 56t-70.5 40t-113 15.5q-33 0 -73.5 -7t-85 -21.5t-89.5 -35t-84 -44.5q-14 -8 -26 -9.5t-19 11.5zM270 96q2 66 49 114t113 48q14 0 34.5 -5 t39 -19.5t30 -37t11.5 -55.5q0 -68 -46 -116t-112 -48q-53 0 -86 33t-33 86z" />
<glyph unicode="@" horiz-adv-x="1925" d="M190 553q0 205 69 376t191.5 295t292.5 192.5t373 68.5q156 0 288 -42t228.5 -124t150.5 -203t54 -278q0 -139 -35 -249t-95 -186.5t-144 -116.5t-183 -40q-98 0 -155.5 34.5t-71.5 88.5q-59 -47 -134 -73t-145 -26q-135 0 -217 80t-82 244q0 111 27 212t84 180t143 126 t207 47q18 0 54 -2t78 -7t84 -14.5t73 -21.5q27 -10 34 -28.5t3 -41.5q-31 -170 -48.5 -307t-33.5 -252q-6 -53 23.5 -81.5t107.5 -28.5q68 0 122 35.5t91 98t56.5 147.5t19.5 186q0 123 -42 218t-119 161.5t-183.5 100.5t-235.5 34q-195 0 -343 -64.5t-247.5 -174 t-150.5 -255t-51 -307.5q0 -127 37.5 -232.5t111.5 -180t180.5 -115.5t243.5 -41q18 0 48 2t67 6t79 11t85 18q16 4 22 0.5t10 -19.5l15 -59q4 -18 -1 -25.5t-22 -13.5q-63 -23 -146 -33t-155 -10q-174 0 -307 49t-223 140t-136.5 218t-46.5 283zM725 598 q0 -102 54.5 -148.5t133.5 -46.5q41 0 101.5 15.5t120.5 54.5q8 78 17 143.5t17.5 127t18.5 125t22 135.5q-43 10 -92 15t-84 5q-66 0 -122 -26.5t-98 -79t-65.5 -133t-23.5 -187.5z" />
<glyph unicode="A" horiz-adv-x="1228" d="M-17 12q-1 5 -1 10q0 8 2 17l637 1317q23 49 44 64.5t68 17.5h58q53 0 69.5 -17.5t26.5 -64.5l262 -1317q2 -6 2 -11q0 -8 -4 -16q-6 -12 -25 -12h-121q-18 0 -29 4t-16 27l-55 301h-561l-141 -301q-10 -16 -19.5 -23.5t-27.5 -7.5h-146q-20 0 -23 12zM410 498h460 l-71 426l-51 299h-11l-131 -289z" />
<glyph unicode="B" horiz-adv-x="1280" d="M113 102l170 1229q10 53 35.5 79t80.5 26l461 2q78 0 144.5 -18.5t115.5 -56.5t77 -98.5t28 -144.5q0 -47 -13.5 -95t-41 -92t-70.5 -81t-105 -59l-2 -13q106 -41 151.5 -124t45.5 -183q0 -113 -39 -201t-108.5 -148.5t-165 -92t-207.5 -31.5h-471q-53 0 -74 24 q-15 17 -15 49q0 13 3 29zM305 172h373q98 0 160.5 33t99.5 80t50 101t13 95q0 98 -60 158.5t-189 60.5h-373zM401 860h363q33 0 77 10.5t85 37t69.5 73.5t28.5 121t-51 119t-144 45h-370z" />
<glyph unicode="C" horiz-adv-x="1187" d="M141 555q0 211 50.5 379t141.5 282.5t216.5 176t277.5 61.5q37 0 83 -3t96.5 -12t101.5 -25.5t98 -43.5q12 -7 12 -17q0 -9 -10 -30l-37 -88q-12 -29 -38 -14q-70 35 -152 48t-145 13q-145 0 -242.5 -63.5t-156 -167t-82 -233.5t-23.5 -263q0 -90 16.5 -165t57 -128 t110.5 -84t176 -31q88 0 176 24t162 56q23 10 30 3t13 -19l43 -86q10 -23 4 -34t-20 -19q-113 -55 -234 -75t-219 -20q-256 0 -381 142.5t-125 435.5z" />
<glyph unicode="D" horiz-adv-x="1341" d="M109 102l172 1229q8 53 34.5 79t83.5 26l357 2l-2 -2q274 0 403 -153t129 -423q0 -188 -45 -346t-134 -272.5t-222 -178t-312 -63.5h-376q-90 0 -90 79q0 11 2 23zM303 170h275q143 0 242.5 56.5t161.5 149.5t90 216t28 256q0 92 -17.5 169t-60.5 132t-115.5 86 t-185.5 31h-264z" />
<glyph unicode="E" horiz-adv-x="1148" d="M144 216q-3 25 -3 51q0 40 6 83l101 733q10 70 30.5 134.5t61.5 112.5t105.5 77t162.5 29h549q23 0 29 -10q4 -8 4 -23v-10l-14 -86q-2 -23 -10.5 -32t-32.5 -9h-521q-84 0 -125 -38t-53 -118l-37 -266h631q23 0 28 -10.5t3 -32.5l-12 -78q-2 -20 -10.5 -30.5 t-30.5 -10.5h-631l-51 -356q-3 -18 -2 -34q0 -47 22 -78q30 -42 115 -42h561q25 0 30 -10t1 -33l-11 -86q-4 -23 -12 -33t-31 -10h-563q-102 0 -162.5 28.5t-91 76t-36.5 111.5z" />
<glyph unicode="F" horiz-adv-x="1130" d="M102 39l146 1044q10 70 30.5 134.5t60.5 112.5t106.5 77t168.5 29h549q23 0 29 -10q4 -8 4 -23v-10l-14 -84q-2 -25 -10.5 -34t-32.5 -9h-527q-84 0 -125 -37t-53 -117l-39 -287h625q25 0 31 -9t2 -32l-13 -79q-4 -20 -12 -31.5t-31 -11.5h-626l-88 -623 q-2 -25 -12.5 -32t-32.5 -7h-99q-21 0 -31 7q-8 5 -7 20q0 5 1 12z" />
<glyph unicode="G" horiz-adv-x="1294" d="M137 555q0 211 52.5 379t146.5 282.5t223 176t281 61.5q37 0 83 -3t96 -12t101 -25.5t99 -43.5q11 -7 11 -17q0 -9 -9 -30l-39 -88q-12 -29 -39 -14q-70 35 -152 48t-143 13q-147 0 -246.5 -63.5t-160 -167t-87 -233.5t-26.5 -263q0 -90 16 -165t57 -128t111 -84t176 -31 q18 0 49 2.5t69 7.5t80 14t81 26l73 505q2 25 13.5 32t33.5 7h97q23 0 31 -7t4 -32l-76 -567q-6 -39 -39 -61q-57 -33 -119.5 -51.5t-122 -28.5t-112 -13.5t-84.5 -3.5q-268 0 -398.5 142.5t-130.5 435.5z" />
<glyph unicode="H" horiz-adv-x="1366" d="M102 39l191 1356q4 25 15 32t32 7h100q23 0 32 -7.5t5 -31.5l-78 -557h701l78 557q4 25 14 32t33 7h100q25 0 32 -8q5 -6 5 -21v-10l-193 -1356q-4 -25 -12 -32t-33 -7h-100q-23 0 -32 7t-5 32l90 635h-702l-90 -635q-4 -25 -13.5 -32t-31.5 -7h-101q-21 0 -31 7 q-8 5 -7 20q0 5 1 12z" />
<glyph unicode="I" horiz-adv-x="532" d="M127 39l190 1356q4 25 15.5 32t34.5 7h100q23 0 31 -8q5 -5 5 -17q0 -6 -1 -14l-193 -1356q-2 -25 -11 -32t-32 -7h-100q-23 0 -33 7q-7 5 -7 19q0 6 1 13z" />
<glyph unicode="J" horiz-adv-x="1124" d="M16 104q-1 2 -1 4q0 10 10 27l55 94q12 25 43 4q66 -39 145.5 -62.5t171.5 -23.5q96 0 161 28t107 81t65.5 131t37.5 178l115 830q4 25 15 32t32 7h98q25 0 32 -8q4 -4 4 -16q0 -6 -1 -15q-23 -156 -39 -271.5t-29.5 -212t-26 -186.5t-26.5 -195q-18 -127 -50 -228 t-92.5 -174t-154.5 -112t-235 -39q-43 0 -96.5 5.5t-108.5 17.5t-111.5 33.5t-105.5 54.5q-12 6 -15 16z" />
<glyph unicode="K" horiz-adv-x="1253" d="M102 39l191 1356q4 25 15 32t32 7h96q23 0 32 -5.5t5 -29.5l-100 -715l8 -2l233 260l437 467q25 25 67 25h148q16 0 19 -10q1 -2 1 -4q0 -7 -8 -15l-449 -481l359 -883q16 -41 -25 -41h-100q-33 0 -48.5 5t-25.5 32l-291 747l-366 -397l-51 -348q-2 -25 -11.5 -32 t-33.5 -7h-97q-21 0 -31 7q-8 5 -7 20q0 5 1 12z" />
<glyph unicode="L" horiz-adv-x="1095" d="M142 204q-4 28 -4 59q0 35 5 73l150 1063q4 25 15 32t32 7h98q23 0 32 -7.5t5 -31.5l-149 -1059q-3 -22 -3 -41q0 -127 144 -127h553q18 0 22 -9q3 -5 3 -14q0 -6 -1 -12l-14 -102q-4 -16 -9 -25.5t-24 -9.5h-567q-96 0 -156.5 26.5t-92 71t-39.5 106.5z" />
<glyph unicode="M" horiz-adv-x="1609" d="M102 35l183 1298q6 47 28.5 75t81.5 28h47q43 0 63.5 -15.5t33.5 -66.5q2 -4 14 -55.5t31.5 -126t41 -160.5t41 -163t33 -131t17.5 -65l74 -313h8l26.5 53t50 99.5t51 99.5t27.5 53q10 20 41 76.5t70 130.5t83 157t82 154.5t65.5 123.5t35.5 67q27 51 52.5 66.5 t66.5 15.5h63q59 0 75 -28q10 -18 10 -44q0 -14 -3 -31l-182 -1298q-4 -23 -12 -29t-29 -6h-100q-20 0 -28.5 6t-6.5 29l152 1067h-11l-147 -281q-8 -16 -32.5 -60t-55.5 -102.5t-67 -124t-66.5 -124t-55 -102.5t-32.5 -58q-23 -47 -44.5 -64.5t-68.5 -17.5h-66 q-47 0 -64 17.5t-28 64.5l-15 60t-26.5 101.5t-32 123t-32 123t-27.5 101.5t-16 60l-68 262h-10l-148 -1046q-4 -23 -12 -29t-31 -6h-98q-17 0 -27 6q-7 4 -7 17q0 5 1 12z" />
<glyph unicode="N" horiz-adv-x="1372" d="M102 39l181 1294q8 51 32.5 77t79.5 26h51q45 0 61.5 -18.5t37.5 -63.5l352 -817l123 -295h6l162 1155q4 25 15 32t34 7h96q23 0 30 -8q4 -5 4 -16q0 -7 -1 -15l-180 -1295q-8 -51 -30.5 -76.5t-80.5 -25.5h-51q-45 0 -62.5 18.5t-35.5 63.5l-373 860l-107 250h-6 l-159 -1153q-4 -25 -13.5 -32t-34.5 -7h-94q-21 0 -31 7q-8 5 -7 20q0 5 1 12z" />
<glyph unicode="O" horiz-adv-x="1400" d="M143 516q0 223 55.5 398.5t150.5 295t222.5 183t272.5 63.5q252 0 381 -145.5t129 -409.5q0 -188 -46 -356t-136.5 -294t-221.5 -200t-301 -74q-248 0 -377 140.5t-129 398.5zM326 537q0 -88 18 -161t58 -124t104.5 -79t159.5 -28q131 0 228 63.5t160.5 169t94.5 241 t31 278.5q0 82 -17.5 153.5t-58.5 125t-107.5 83t-162.5 29.5q-131 0 -227.5 -64.5t-159 -170t-92 -240.5t-29.5 -276z" />
<glyph unicode="P" horiz-adv-x="1202" d="M102 39l183 1294q8 53 33.5 79t80.5 26h449q180 0 281.5 -105.5t101.5 -281.5q0 -76 -23.5 -160t-81 -153.5t-155 -116t-244.5 -46.5h-369l-77 -536q-2 -25 -11.5 -32t-33.5 -7h-97q-21 0 -31 7q-8 5 -7 20q0 5 1 12zM383 741h338q156 0 237.5 81t81.5 218q0 39 -11 79 t-38.5 73t-77 52.5t-122.5 19.5h-334z" />
<glyph unicode="Q" horiz-adv-x="1400" d="M143 516q0 223 55.5 398.5t150.5 295t222.5 183t272.5 63.5q252 0 381 -145.5t129 -409.5q0 -188 -46 -356t-136.5 -294t-221.5 -200t-301 -74q-248 0 -377 140.5t-129 398.5zM326 537q0 -88 18 -161t58 -124t104.5 -79t157.5 -28q131 0 228 63.5t161.5 169t95.5 241 t31 278.5q0 82 -17.5 153.5t-58.5 124t-108 82t-165 29.5q-131 0 -226 -63.5t-157.5 -169t-92 -240.5t-29.5 -276zM541 -244l16 92q2 18 8 25.5t25 7.5h182q96 0 173 -12t135.5 -31.5t99.5 -41t65 -40.5q14 -10 17 -15q1 -1 1 -3q0 -6 -8 -19l-55 -92q-9 -12 -17 -12h-3 q-9 2 -29 12q-74 41 -177.5 67.5t-232.5 26.5h-176q-18 0 -22 9q-3 5 -3 15q0 5 1 11z" />
<glyph unicode="R" horiz-adv-x="1243" d="M102 39l183 1294q8 53 33.5 79t80.5 26h455q86 0 154.5 -26t117 -72t73 -110.5t24.5 -139.5q0 -162 -80 -262.5t-199 -143.5v-8q78 -27 105.5 -79t37.5 -128l54 -432q2 -10 -2 -23.5t-27 -13.5h-131q-10 0 -20.5 4t-14.5 23l-47 391q-8 59 -28.5 98t-52.5 61.5 t-72.5 30.5t-90.5 8h-284l-82 -577q-4 -25 -13.5 -32t-31.5 -7h-105q-21 0 -31 7q-8 5 -7 20q0 5 1 12zM395 780h332q78 0 136.5 23.5t96 63.5t57 92.5t19.5 109.5q0 37 -11 72t-36.5 62.5t-70 44t-107.5 16.5h-346z" />
<glyph unicode="S" horiz-adv-x="1132" d="M63 123l54 108q10 23 35 13q96 -49 200.5 -73t196.5 -24q172 0 260 60.5t88 185.5q0 49 -18.5 86t-54.5 68t-90 58.5t-126 60.5q-104 49 -181 93t-126 91t-73.5 101.5t-24.5 121.5q0 186 130 285.5t355 99.5q98 0 208 -20.5t196 -61.5q10 -4 14 -11q2 -4 2 -9.5t-2 -14.5 l-41 -114q-8 -14 -14.5 -16.5t-14.5 1.5q-96 41 -189 58.5t-173 17.5q-131 0 -201 -58.5t-70 -152.5q0 -78 83 -134t239 -126q74 -33 141.5 -69.5t118.5 -85t82 -111t31 -148.5q0 -113 -43 -193.5t-116 -131.5t-169 -76t-203 -25q-117 0 -253 21.5t-246 83.5q-10 7 -10 20 q0 9 5 21z" />
<glyph unicode="T" horiz-adv-x="1087" d="M158 1300l16 101q4 16 9 24.5t24 8.5h973q18 0 23 -8q3 -5 3 -12q0 -6 -2 -13l-14 -101q-2 -18 -8 -25t-27 -7h-399l-172 -1229q-4 -25 -12.5 -32t-30.5 -7h-105q-23 0 -33 7t-8 32l174 1229h-385q-20 0 -24 7q-3 5 -3 14q0 5 1 11z" />
<glyph unicode="U" horiz-adv-x="1351" d="M172 312q-4 39 -4 84q0 98 18 225l105 774q4 25 15 32t32 7h104q23 0 31 -7.5t6 -31.5l-108 -766q-18 -122 -18 -211q0 -94 37 -156q36 -60 115 -89.5t218 -29.5q35 0 108.5 4.5t161.5 20.5l174 1227q4 25 14.5 32t30.5 7h107q23 0 28 -8q3 -4 3 -13q0 -7 -2 -18 l-170 -1215q-10 -72 -49 -118t-128 -62q-76 -14 -161.5 -19.5t-147.5 -5.5q-172 0 -281.5 32t-168 106.5t-70.5 198.5z" />
<glyph unicode="V" horiz-adv-x="1251" d="M178 1409q-1 4 -1 7q0 20 22 20h137q25 0 31 -25q0 -4 11 -64.5t27.5 -151.5t36 -198.5t37 -207t31.5 -176t20 -103.5q2 -6 11.5 -53t19.5 -102.5t19.5 -103.5t11.5 -56h10l139 313l424 903q8 18 17.5 21.5t25.5 3.5h144q13 0 13 -12q0 -6 -3 -15l-641 -1333 q-20 -41 -37.5 -57.5t-58.5 -18.5h-86q-43 0 -62.5 14.5t-30.5 61.5z" />
<glyph unicode="W" horiz-adv-x="1652" d="M178 1409q-1 4 -1 7q0 20 20 20h137q27 0 31 -25l34 -856l13 -332h10l117 332l282 791q12 37 37 63.5t80 26.5h84q45 0 59.5 -25t18.5 -65l57 -783l21 -340h12l108 342l277 846q8 25 37 25h143q10 0 12 -8q1 -3 1 -6q0 -6 -3 -13l-460 -1333q-16 -47 -43 -61.5t-68 -14.5 h-84q-39 0 -55.5 23.5t-20.5 66.5l-67 819l-15 314h-8l-110 -316l-295 -817q-16 -41 -38 -65.5t-63 -24.5h-84q-41 0 -65.5 14.5t-28.5 61.5z" />
<glyph unicode="X" horiz-adv-x="1114" d="M-28 8q-1 2 -1 5q0 6 4 14l529 712l-305 672q-4 6 1 15.5t19 9.5h127q25 0 34 -5.5t17 -23.5l226 -514l368 514q12 16 23.5 22.5t34.5 6.5h141q14 0 17 -10q1 -3 1 -5q0 -7 -6 -14l-489 -664l327 -716q4 -8 0 -17.5t-16 -9.5h-133q-25 0 -34 6t-17 23l-244 563l-401 -563 q-12 -16 -23.5 -22.5t-34.5 -6.5h-149q-14 0 -16 8z" />
<glyph unicode="Y" horiz-adv-x="1120" d="M170 1413q-2 3 -2 6q0 4 3 9q5 8 17 8h138q16 0 22 -5.5t12 -21.5l134 -352l110 -316h8l207 328l223 340q10 16 18.5 21.5t24.5 5.5h150q11 0 11 -12q0 -6 -3 -11l-561 -840l-76 -542q-4 -20 -10 -25.5t-25 -5.5h-114q-16 0 -23.5 5t-5.5 26l76 542z" />
<glyph unicode="Z" horiz-adv-x="1206" d="M16 86l7 39q6 39 19 60.5t36 43.5q14 16 61 66.5t112.5 121t146.5 156.5t165 175.5t165 174.5t146.5 155.5t112.5 120.5t62 67v6h-732q-20 0 -24 8t0 25l14 98q2 16 8.5 24.5t24.5 8.5h823q49 0 74 -20q18 -14 18 -45q0 -11 -2 -25l-6 -43q-4 -37 -21.5 -64t-43.5 -55 l-940 -1010v-12h827q18 0 22.5 -7.5t0.5 -25.5l-13 -96q-4 -16 -9 -24.5t-23 -8.5h-947q-46 0 -70 20q-17 15 -17 42q0 11 3 24z" />
<glyph unicode="[" horiz-adv-x="612" d="M57 -141l222 1583q4 16 10 24.5t24 8.5h373q18 0 22.5 -8.5t0.5 -24.5l-9 -74q-4 -16 -10 -23.5t-24 -7.5h-230l-194 -1374h231q16 0 21.5 -7t3.5 -24l-13 -73q-2 -16 -8 -25.5t-24 -9.5h-371q-18 0 -22.5 9t-2.5 26z" />
<glyph unicode="\" horiz-adv-x="860" d="M199 1565q-4 16 6 22t18 6h115q27 0 35 -28l389 -1733q4 -16 -5 -22.5t-22 -6.5h-112q-29 0 -35 29z" />
<glyph unicode="]" horiz-adv-x="612" d="M27 -141l12 73q4 16 9 23.5t24 7.5h229l193 1374h-228q-20 0 -24 7.5t-2 23.5l10 74q4 16 10 24.5t25 8.5h372q18 0 22.5 -8.5t0.5 -24.5l-223 -1583q-2 -16 -8.5 -25.5t-24.5 -9.5h-371q-20 0 -24 9t-2 26z" />
<glyph unicode="^" horiz-adv-x="1042" d="M118 783.5q-3 9.5 7 23.5l457 629q16 23 31.5 37t37.5 14h33q29 0 38 -9.5t19 -35.5l281 -635q8 -16 1 -23.5t-22 -7.5h-114q-35 0 -43 29l-197 463h-6q-6 -10 -31.5 -45t-58.5 -82t-71 -100.5t-70.5 -100.5t-58 -83t-32.5 -46q-14 -23 -24 -30t-33 -7h-123 q-18 0 -21 9.5z" />
<glyph unicode="_" horiz-adv-x="993" d="M-111 -225l5 45q4 16 10 24.5t26 8.5h992q18 0 22 -8.5t2 -24.5l-6 -45q-4 -18 -10 -25.5t-27 -7.5h-991q-18 0 -22.5 7t-0.5 26z" />
<glyph unicode="`" horiz-adv-x="1007" d="M399 1511q-16 18 9 31l129 62q16 6 23 0.5t15 -15.5l191 -317q8 -16 6 -21.5t-12 -13.5l-53 -35q-12 -6 -21.5 -4t-23.5 16z" />
<glyph unicode="a" horiz-adv-x="1112" d="M102 371q0 154 32 285.5t99.5 230t174 155t258.5 56.5q68 0 163 -8.5t203 -36.5q33 -9 37 -25q2 -8 2 -18t-2 -21q-35 -240 -65.5 -459t-59.5 -448q-2 -27 -33 -41q-45 -18 -98 -30.5t-107.5 -19.5t-107.5 -10.5t-96 -3.5q-111 0 -187.5 31t-124 84t-68 125t-20.5 154z M279 387q0 -125 62 -190.5t212 -65.5q23 0 52.5 2t60 6t60.5 10.5t54 16.5q25 197 50.5 379t54.5 370q-51 16 -113.5 22.5t-109.5 6.5q-74 0 -142.5 -27.5t-122 -92t-86 -171t-32.5 -266.5z" />
<glyph unicode="b" horiz-adv-x="1112" d="M90 84l193 1382q4 20 12 25.5t24 5.5h111q16 0 23.5 -5t3.5 -26l-60 -411q66 20 143.5 31.5t133.5 11.5q104 0 176 -32t116 -90t64.5 -139t20.5 -182q0 -147 -37 -271t-108.5 -215t-177 -141.5t-245.5 -50.5q-92 0 -191 15.5t-183 54.5q-20 6 -20 27q0 4 1 10zM272 162 q59 -20 121 -26.5t109 -6.5q74 0 140.5 30.5t118.5 94t82.5 161t30.5 230.5q0 297 -241 297q-39 0 -108.5 -7t-147.5 -34z" />
<glyph unicode="c" horiz-adv-x="950" d="M106 406q0 154 35 280.5t100.5 218.5t159 142.5t211.5 50.5q80 0 167 -16.5t149 -55.5q12 -7 12 -21q0 -10 -6 -22l-37 -84q-12 -29 -41 -12q-45 23 -108.5 37t-129.5 14q-92 0 -156.5 -46t-105.5 -121t-59 -169t-18 -190q0 -61 13 -112.5t43 -88.5t78 -57.5t119 -20.5 q68 0 137.5 17.5t114.5 35.5q20 10 25.5 5t11.5 -15l39 -86q12 -27 -16 -43q-82 -43 -171 -56.5t-163 -13.5q-193 0 -298.5 105.5t-105.5 323.5z" />
<glyph unicode="d" horiz-adv-x="1110" d="M104 412q0 139 35 264t105.5 218t177 148.5t250.5 55.5q45 0 106.5 -6.5t124.5 -24.5l58 399q4 20 11 25.5t23 5.5h113q16 0 24 -5q5 -3 4 -13q0 -5 -1 -13l-193 -1378q-4 -14 -9 -22.5t-22 -14.5q-109 -47 -219 -60.5t-196 -13.5q-106 0 -181 32t-121.5 90.5t-68 137 t-21.5 175.5zM285 416q0 -154 66.5 -219.5t193.5 -65.5q25 0 55.5 3t62 7t62.5 11.5t53 15.5l105 741q-72 23 -123 29t-98 6q-72 0 -139.5 -27.5t-121 -91t-85 -164t-31.5 -245.5z" />
<glyph unicode="e" horiz-adv-x="1005" d="M102 391q0 184 41 317.5t114 219.5t170 128t208 42q102 0 168.5 -28t106.5 -68.5t56.5 -90t16.5 -94.5q0 -182 -127 -265t-393 -83q-43 0 -90 2t-97 10q-6 -47 -6 -86v-9q0 -128 56 -190q58 -64 194 -63q66 0 127.5 17.5t108.5 39.5q16 6 22 5t13 -15l43 -86 q10 -25 -19 -41q-78 -45 -164 -60.5t-164 -15.5q-195 0 -290 98.5t-95 315.5zM295 612q41 -4 85 -6t79 -2q104 0 175 12.5t114 36t60 60.5t17 86q0 57 -44.5 103t-157.5 46q-135 0 -218 -84t-110 -252z" />
<glyph unicode="f" horiz-adv-x="675" d="M90 -379l182 1313h-149q-29 0 -23 27l6 49q2 16 8.5 23t24.5 11q4 0 27.5 5.5t49.5 10.5t49.5 9t27.5 4l20 137q18 141 91 222t229 81q29 0 83 -4t107 -24q16 -4 19 -13v-7q0 -6 -2 -13l-19 -92q-4 -14 -14 -17.5t-21 -1.5q-41 8 -75.5 10.5t-63.5 2.5q-84 0 -117.5 -37 t-44.5 -96l-20 -146h254q18 0 23.5 -7t0.5 -24l-10 -81q-4 -12 -10 -20.5t-25 -8.5h-254l-168 -1258q-2 -20 -9 -28t-23 -15l-123 -43q-8 -4 -14 -4q-8 0 -13 6t-5 17q0 6 1 12z" />
<glyph unicode="g" horiz-adv-x="1110" d="M104 414q0 150 36 274.5t107.5 215.5t178 141.5t248.5 50.5q94 0 192.5 -15.5t184.5 -52.5q19 -8 19 -29q0 -5 -1 -10l-139 -977q-12 -86 -31.5 -168t-66 -146.5t-129 -103t-224.5 -38.5q-43 0 -91 5t-94 13t-87 18.5t-68 22.5q-25 10 -30 16.5t6 24.5l32 94 q8 20 17.5 20.5t28.5 -3.5q29 -10 64.5 -19.5t73.5 -16.5t75.5 -11.5t70.5 -4.5q74 0 122 15.5t79 51.5t48 94t30 144q-66 -20 -142.5 -32.5t-132.5 -12.5q-102 0 -172.5 32t-117 90.5t-67 138t-20.5 178.5zM281 424q0 -143 62.5 -218t180.5 -75q37 0 106.5 7t149.5 34 q4 29 12.5 86t18.5 130t21.5 153t21.5 152.5t17.5 130t11.5 85.5q-55 20 -117 27.5t-109 7.5q-74 0 -142.5 -31.5t-120.5 -95t-82.5 -161t-30.5 -232.5z" />
<glyph unicode="h" horiz-adv-x="1116" d="M82 31l201 1435q4 20 12 25.5t24 5.5h109q16 0 23.5 -5t3.5 -26l-58 -415q68 27 150 37t139 10q113 0 185.5 -34t111.5 -96.5t47 -151.5q3 -32 3 -68q0 -62 -9 -134l-82 -583q-4 -20 -12 -25.5t-25 -5.5h-110q-16 0 -23.5 5t-5.5 26l82 583q9 60 9 108q-1 87 -29 139 q-44 81 -191 81q-29 0 -63.5 -2t-69.5 -7t-69 -13.5t-60 -20.5l-121 -868q-4 -20 -11 -25.5t-24 -5.5h-108q-17 0 -25 5q-6 3 -5 14q0 5 1 12z" />
<glyph unicode="i" horiz-adv-x="516" d="M121 31l141 1013q4 20 13.5 25.5t25.5 5.5h107q18 0 25 -5t3 -26l-141 -1013q-4 -20 -11.5 -25.5t-25.5 -5.5h-106q-16 0 -26 5q-7 4 -6 15q0 5 1 11zM281 1343q0 55 40 97.5t93 42.5q45 0 72.5 -30t27.5 -75q0 -55 -42 -95t-93 -40q-41 0 -69.5 28.5t-28.5 71.5z" />
<glyph unicode="j" horiz-adv-x="542" d="M-176 -330q-2 25 24 35q88 31 143.5 71t88.5 90t49 110.5t27 134.5l131 933q2 20 11 25.5t26 5.5h108q16 0 24.5 -5t4.5 -26l-127 -901q-20 -143 -55 -243.5t-89.5 -170t-129 -111.5t-173.5 -69q-6 -2 -11 -2q-15 0 -17 19zM301 1343q0 55 41 97.5t94 42.5q43 0 72 -30 t29 -73q-2 -57 -43 -97t-93 -40q-43 0 -71.5 28.5t-28.5 71.5z" />
<glyph unicode="k" horiz-adv-x="980" d="M80 31l201 1435q4 20 12 25.5t24 5.5h109q16 0 23.5 -5t5.5 -26l-129 -901l8 -4l471 498q8 8 15 12t24 4h151q11 0 13 -9q1 -2 0 -4q0 -7 -7 -11l-311 -330l228 -698q2 -6 -0.5 -14.5t-14.5 -8.5h-123q-35 0 -41 23l-176 567l-272 -277l-39 -282q-4 -20 -11.5 -25.5 t-23.5 -5.5h-108q-17 0 -25 5q-6 3 -5 14q0 5 1 12z" />
<glyph unicode="l" horiz-adv-x="540" d="M123 182l180 1284q4 20 11.5 25.5t23.5 5.5h113q16 0 24 -5q5 -3 5 -14q0 -5 -1 -12l-174 -1233q-3 -25 -4 -42q0 -25 7 -33q11 -16 52 -15q16 0 36 1t36 3q20 2 25 -20l14 -86q6 -29 -27 -39q-45 -16 -90 -20.5t-78 -4.5q-102 1 -136 51q-23 34 -23 91q0 28 6 63z" />
<glyph unicode="m" horiz-adv-x="1767" d="M82 29l121 882q10 70 41.5 111t109.5 57q14 4 45 7.5t66 6.5t68.5 4t56.5 1q119 0 192.5 -25.5t126.5 -85.5q80 53 188.5 82t219.5 29q123 0 198.5 -38t115.5 -104.5t46 -157.5q2 -27 2 -56q0 -67 -10 -144l-80 -569q-4 -18 -10 -23.5t-23 -5.5h-110q-16 0 -24.5 5 t-4.5 24l76 540q11 83 11 149v11q-1 70 -24.5 117t-73.5 70.5t-136 23.5q-31 0 -70 -5t-77 -14.5t-74.5 -22.5t-63.5 -28q18 -55 18 -120v-14q-2 -72 -14 -156l-78 -551q-4 -18 -11 -23.5t-23 -5.5h-109q-16 0 -23.5 5t-5.5 24l78 551q10 80 10 146.5t-24.5 113.5 t-77.5 73.5t-150 26.5q-14 0 -38.5 -1t-53 -3t-57.5 -5t-47 -7l-125 -895q-4 -18 -11 -23.5t-24 -5.5h-108q-17 0 -25 5q-6 3 -5 13q0 5 1 11z" />
<glyph unicode="n" horiz-adv-x="1116" d="M82 31l125 893q18 137 147 155q23 4 54.5 7.5t66.5 6.5t67.5 4t57.5 1q129 0 217 -29t139.5 -91.5t65.5 -160.5q6 -40 6 -88q0 -68 -12 -149l-76 -549q-4 -20 -11 -25.5t-26 -5.5h-108q-16 0 -23.5 5t-5.5 26l78 542q10 74 10 132q0 15 -1 29q-3 69 -32.5 115t-91 68.5 t-164.5 22.5q-23 0 -71 -3t-115 -13l-125 -893q-4 -20 -11 -25.5t-24 -5.5h-108q-17 0 -25 5q-6 3 -5 14q0 5 1 12z" />
<glyph unicode="o" horiz-adv-x="1105" d="M102 393q0 172 43 303t117 220.5t172 135.5t209 46q197 0 302.5 -112t105.5 -318q0 -158 -38 -286t-108.5 -218t-172 -138.5t-228.5 -48.5q-195 0 -298.5 105.5t-103.5 310.5zM276 410q0 -129 57.5 -206t190.5 -77q100 0 167 50t108 129t58 175.5t17 188.5q0 57 -12 108 t-39.5 89t-74.5 59.5t-117 21.5q-94 0 -161 -46t-110 -121.5t-63.5 -173t-20.5 -197.5z" />
<glyph unicode="p" horiz-adv-x="1110" d="M23 -385l192 1372q2 27 31 35q104 45 207.5 60.5t197.5 15.5q106 0 182 -33t124.5 -92.5t71 -142t22.5 -181.5q0 -145 -37 -268t-107.5 -213t-172 -140.5t-230.5 -50.5q-53 0 -116.5 6.5t-135.5 28.5l-57 -397q-2 -18 -9.5 -23.5t-23.5 -5.5h-111q-16 0 -25 6q-5 3 -5 11 q0 5 2 12zM274 168q72 -23 125.5 -30t100.5 -7q72 0 139.5 26.5t119.5 87t82.5 158t30.5 240.5q0 166 -69.5 233.5t-192.5 67.5q-51 0 -117.5 -10t-113.5 -29z" />
<glyph unicode="q" horiz-adv-x="1112" d="M104 410q0 154 36 280.5t107.5 217.5t176.5 140.5t244 49.5q94 0 196.5 -15.5t186.5 -54.5q20 -8 20 -26q0 -5 -2 -11l-192 -1382q-4 -20 -11.5 -25.5t-23.5 -5.5h-113q-16 0 -23.5 5t-5.5 26l60 411q-68 -20 -146.5 -31.5t-132.5 -11.5q-100 0 -170.5 32t-117 89.5 t-68 136t-21.5 175.5zM281 420q0 -152 62.5 -219.5t178.5 -67.5q39 0 109.5 7t148.5 34l105 737q-55 20 -118 27.5t-110 7.5q-72 0 -140 -28.5t-120.5 -92t-84 -163t-31.5 -242.5z" />
<glyph unicode="r" horiz-adv-x="722" d="M113 31l127 899q12 74 40.5 109.5t106.5 45.5q96 14 194.5 17.5t176.5 3.5q25 0 35 -6q6 -4 6 -18q0 -9 -2 -21l-19 -107q-6 -29 -17 -31.5t-30 -0.5q-74 4 -159 9t-156 7l-131 -907q-4 -20 -11.5 -25.5t-23.5 -5.5h-109q-16 0 -23 5q-5 4 -5 17v9z" />
<glyph unicode="s" horiz-adv-x="921" d="M51 102l37 84q14 31 45 15q74 -37 156 -54.5t153 -17.5q100 0 164 43t66 125q0 66 -58.5 107.5t-162.5 82.5q-139 55 -209 124t-70 173q0 147 100.5 230.5t284.5 83.5q80 0 154.5 -13.5t146.5 -46.5q12 -6 14 -17q1 -4 1 -7q0 -7 -3 -15l-39 -94q-6 -14 -13 -14t-17 4 q-74 31 -132.5 41t-125.5 10q-98 0 -148.5 -45t-50.5 -110q0 -53 47 -89t164 -84q57 -25 109.5 -52t92.5 -64t64.5 -86t24.5 -115q0 -86 -35 -146.5t-92 -100.5t-132 -58.5t-155 -18.5q-92 0 -195.5 18.5t-177.5 63.5q-14 6 -14 21q0 9 6 22z" />
<glyph unicode="t" horiz-adv-x="735" d="M118 942q-1 3 -1 8q0 6 2 13l8 59q2 16 7 23.5t24 11.5l159 30l62 191q6 23 14 31t27 16l67 25q5 2 10 2t11 -4q10 -6 6 -23l-37 -250h244q19 0 23 -8q3 -5 2 -12q0 -5 -1 -11l-12 -81q-4 -16 -9 -22.5t-24 -6.5h-241l-94 -664q-3 -20 -3 -36q0 -42 18 -66q26 -32 99 -33 q25 0 72 5t82 10q16 4 20 -2.5t6 -16.5l15 -90q2 -12 0 -20.5t-19 -14.5q-31 -10 -64.5 -15t-64 -8t-56.5 -4.5t-40 -1.5q-154 0 -207 69q-37 48 -37 132q0 36 7 80l94 676h-146q-20 0 -23 8z" />
<glyph unicode="u" horiz-adv-x="1099" d="M135 253q-2 28 -2 59q0 78 14 177l76 558q4 20 12.5 25t24.5 5h109q16 0 23 -5t3 -25l-76 -547q-13 -93 -13 -161v-9q1 -70 26.5 -113t83 -61.5t155.5 -18.5q23 0 76 3t119 14l127 893q4 20 11 25t24 5h110q16 0 24 -5q5 -3 4 -13q0 -5 -1 -12l-125 -895 q-18 -131 -147 -156q-29 -4 -64 -7t-69.5 -5t-66.5 -3t-56 -1q-133 0 -218.5 27.5t-130.5 88t-53 157.5z" />
<glyph unicode="v" horiz-adv-x="995" d="M133 1055q-1 3 -1 6q0 14 18 14h126q23 0 27 -18l107 -565l53 -334h10l141 329l263 570q6 18 28 18h135q18 0 18 -10q0 -4 -3 -10l-457 -975q-23 -49 -43 -69.5t-68 -20.5h-77q-35 0 -56.5 16.5t-31.5 71.5z" />
<glyph unicode="w" horiz-adv-x="1458" d="M133 1057q-1 3 -1 6q0 16 18 16h2h133q23 0 24 -20l27 -592l14 -283h10l111 258l215 514q14 29 36.5 53.5t72.5 24.5h61q41 0 54.5 -22.5t19.5 -61.5l67 -477l43 -303h13l94 301l194 588q8 20 31 20h133q14 0 14 -13q0 -4 -1 -9l-349 -975q-20 -59 -48.5 -75.5 t-63.5 -16.5h-70q-47 0 -62.5 17.5t-23.5 66.5l-63 426l-41 327h-9l-135 -338l-184 -415q-16 -39 -38.5 -61.5t-70.5 -22.5h-73q-35 0 -56.5 16.5t-25.5 75.5z" />
<glyph unicode="x" horiz-adv-x="933" d="M-32 8q-1 2 0 5q0 7 7 18l418 538l-231 475q-4 8 -1 19.5t19 11.5h119q23 0 31 -7t14 -17l162 -351l264 351q8 10 17.5 17t27.5 7h137q17 0 17 -12q0 -9 -6 -14l-371 -471l270 -549q4 -8 2 -18.5t-18 -10.5h-131q-23 0 -31 7t-14 18l-189 411l-313 -409 q-10 -12 -19.5 -19.5t-27.5 -7.5h-137q-12 0 -16 8z" />
<glyph unicode="y" horiz-adv-x="972" d="M-138 -371q-2 2 -2 6q0 8 5 21l35 86q8 20 15 21t30 -7q57 -20 113.5 -31.5t86.5 -11.5q66 0 108 34t83 124l63 139h-26q-29 0 -47.5 9.5t-28.5 62.5l-166 971q-4 22 14 22h2h123q25 0 27 -20q2 -10 8 -49t15.5 -92.5t18.5 -115t18.5 -114.5t15.5 -92t8 -49l61 -393h13 q4 8 17 38.5t31.5 71.5t40 88t41 88t34 72t18.5 39l233 508q4 10 10.5 15t22.5 5h129q18 0 18 -11q0 -5 -3 -11l-572 -1239q-59 -131 -134 -193.5t-196 -62.5q-59 0 -128.5 16t-125.5 39q-25 10 -29 16z" />
<glyph unicode="z" horiz-adv-x="913" d="M-6 70l4 30q4 27 15.5 53.5t37.5 51.5l688 719l-2 6h-540q-20 0 -25.5 6t-3.5 22l14 86q2 14 8.5 22.5t24.5 8.5h655q46 1 64 -17q13 -13 14 -40q0 -9 -2 -19l-4 -32q-4 -23 -14 -46.5t-31 -46.5l-694 -724l2 -5h622q20 0 25.5 -8t1.5 -20l-10 -86q-4 -16 -10.5 -23.5 t-24.5 -7.5h-746q-45 0 -59 20q-11 16 -11 38q0 6 1 12z" />
<glyph unicode="{" horiz-adv-x="702" d="M150 635l12 82q2 14 7 19t21 9q59 12 92 58.5t48 144.5l26 207q12 88 37 152.5t68 104.5t106.5 58.5t155.5 16.5q23 0 18 -17l-14 -100q-2 -10 -6 -16t-19 -6q-45 0 -74.5 -12.5t-49 -34t-28.5 -48t-13 -57.5l-35 -252q-14 -98 -60.5 -165.5t-111.5 -98.5l-2 -8 q53 -29 82.5 -92.5t15.5 -165.5l-45 -322q-4 -31 -3 -57.5t13 -47t39 -34.5t74 -23q14 -4 17 -7t1 -13l-14 -100q-4 -16 -21 -17q-66 2 -122 20.5t-94 57.5t-54 100.5t-4 149.5l39 282q14 98 -6.5 144.5t-79.5 60.5q-10 4 -14.5 8.5t-1.5 18.5z" />
<glyph unicode="|" horiz-adv-x="436" d="M195 -248v1811q0 20 8 25t24 5h109q18 0 25.5 -5t7.5 -25v-1811q0 -20 -7.5 -25.5t-25.5 -5.5h-109q-16 0 -24 5.5t-8 25.5z" />
<glyph unicode="}" horiz-adv-x="702" d="M39 -182l12 100q2 10 6 16.5t19 6.5q47 2 77.5 15t49 34.5t28 50.5t13.5 59l43 316q14 98 61 162.5t111 93.5v8q-53 29 -83 92.5t-16 163.5l37 256q4 31 2 57.5t-14 48t-39 37t-72 23.5q-12 4 -15 7t-1 13l14 101q2 8 5.5 12t15.5 4q63 -2 118.5 -21.5t94.5 -59.5 t55.5 -102.5t3.5 -154.5l-30 -209q-14 -100 7 -146t79 -57q10 -4 15 -8t3 -20l-12 -82q-2 -14 -7.5 -18.5t-21.5 -8.5q-59 -14 -92 -60t-47 -145l-37 -270q-12 -90 -37 -153.5t-67 -103.5t-106.5 -58.5t-156.5 -16.5q-20 0 -16 17z" />
<glyph unicode="~" d="M160 551q-16 16 0 35q74 84 142.5 123t141.5 39q53 0 104.5 -21.5t100.5 -46.5t95.5 -46.5t86.5 -21.5q47 0 83 29t77 80q16 18 37 4l49 -37q18 -16 2 -41q-59 -86 -125.5 -130t-154.5 -44q-51 0 -101.5 20.5t-97.5 44t-92 44t-88 20.5q-47 0 -90 -23.5t-86 -64.5 q-23 -18 -37 -4z" />
<glyph unicode="&#xa1;" horiz-adv-x="536" d="M76 -344l174 958q4 18 14 25.5t35 7.5h39q20 0 26.5 -6t6.5 -20l-99 -965q0 -10 -8 -21.5t-24 -11.5h-136q-20 0 -26 11.5t-2 21.5zM221 920q0 33 12.5 61.5t34 50t48 33.5t57.5 12q51 0 83.5 -32.5t32.5 -83.5q0 -31 -12 -60t-33.5 -50.5t-48 -33.5t-57.5 -12 q-53 0 -85 31.5t-32 83.5z" />
<glyph unicode="&#xa2;" d="M207 406q0 150 33.5 275.5t97 215.5t155 142.5t205.5 56.5l25 182q4 16 11 21.5t20 5.5h39q14 0 19 -5.5t1 -21.5l-27 -184q66 -6 130.5 -22.5t113.5 -45.5q18 -12 4 -43l-35 -84q-6 -14 -15 -18t-28 6q-37 16 -87 30.5t-105 18.5l-111 -803q66 2 128.5 19.5t105.5 33.5 q18 10 23 5t12 -15l41 -86q12 -27 -19 -43q-74 -41 -156.5 -54t-156.5 -16l-27 -182q-2 -16 -7 -21t-19 -5h-41q-12 0 -18.5 5t-2.5 21l27 187q-164 18 -250 122.5t-86 301.5zM379 412q0 -104 40 -178t144 -97l111 797q-80 -10 -136.5 -59.5t-91 -122t-51 -161.5t-16.5 -179 z" />
<glyph unicode="&#xa3;" d="M102 49q0 4 2 12q0 8 5 25q6 39 21 55.5t44 38.5q63 49 103 107.5t61.5 120t28 124t6.5 123.5h-162q-18 0 -21.5 8.5t-1.5 24.5l11 66q2 16 8 24t24 8h146l-6 129q-10 469 452 469q78 0 159 -15t144 -52q12 -8 11.5 -17.5t-7.5 -25.5l-32 -80q-10 -25 -41 -10 q-47 23 -107.5 36t-120.5 13q-115 0 -174 -33t-84.5 -92t-26.5 -141t1 -181h393q18 0 22.5 -7t0.5 -23l-11 -68q-2 -16 -8 -24.5t-24 -8.5h-373q-2 -43 -9.5 -106.5t-25.5 -133t-52 -137t-89 -118.5h622q23 0 25 -8.5t0 -24.5l-12 -94q-4 -18 -9.5 -25.5t-25.5 -7.5h-805 q-37 0 -50.5 13.5t-11.5 35.5z" />
<glyph unicode="&#xa4;" horiz-adv-x="1175" d="M190 172q-18 18 9 43l104 107q-90 108 -90 262q0 72 21.5 134t62.5 116l-96 98q-23 20 -2 41l57 57q14 14 22.5 12t18.5 -12l98 -102q51 35 111.5 55.5t126.5 20.5q68 0 129 -20.5t112 -55.5l111 108q20 20 41 2l57 -57q14 -14 12.5 -22.5t-12.5 -20.5l-110 -109 q39 -53 59.5 -115.5t20.5 -129.5q0 -141 -80 -250l106 -105q16 -14 18.5 -23t-12.5 -24l-57 -59q-20 -16 -43 8l-108 109q-106 -76 -244 -76q-129 0 -230 65l-108 -110q-12 -14 -22.5 -16.5t-22.5 12.5zM379 582q0 -53 20.5 -100.5t55 -82t81 -54t99.5 -19.5t100 19.5t82 54 t54.5 81.5t19.5 101q0 51 -19.5 98t-54.5 81t-82 54.5t-100 20.5t-99.5 -20.5t-81 -54.5t-55 -81t-20.5 -98z" />
<glyph unicode="&#xa5;" d="M162 416l6 57q4 16 10 24.5t25 8.5h819q18 0 23.5 -8.5t1.5 -24.5l-9 -57q-4 -18 -9 -25.5t-23 -7.5h-334l-51 -354q-4 -18 -10.5 -23.5t-24.5 -5.5h-111q-16 0 -22.5 5t-1.5 24l49 354h-314q-31 0 -24 33zM193 649l10 56q2 16 8 24t25 8h219l-205 617q-4 6 1 14t19 8 h127q12 0 20.5 -4t12.5 -20l111 -353l80 -286h8l155 286l205 353q14 25 43 24h139q12 0 13.5 -8t-2.5 -14l-375 -617h248q16 0 21 -8t3 -24l-8 -56q-2 -33 -33 -33h-819q-18 0 -22 7.5t-4 25.5z" />
<glyph unicode="&#xa6;" horiz-adv-x="436" d="M195 -248v819q0 18 8 23.5t24 5.5h109q18 0 25.5 -5t7.5 -24v-819q0 -20 -7.5 -25.5t-25.5 -5.5h-109q-16 0 -24 5.5t-8 25.5zM195 735v819q0 18 8 23.5t24 5.5h109q18 0 25.5 -5t7.5 -24v-819q0 -18 -7.5 -23t-25.5 -5h-109q-16 0 -24 5t-8 23z" />
<glyph unicode="&#xa7;" horiz-adv-x="1097" d="M122 -183.5q-1 7.5 5 23.5l35 80q4 10 11 14.5t24 -4.5q41 -18 103 -35.5t116 -17.5q74 0 122 14.5t76.5 38t41 54t12.5 65.5q0 53 -51.5 114.5t-122.5 127.5q-59 51 -114.5 104.5t-98.5 107.5t-70 109.5t-27 114.5q0 84 56.5 167t142.5 136q-23 33 -36 78t-13 86 q0 68 24.5 124t73.5 98t126 65.5t181 23.5q68 0 146 -13t131 -42q14 -6 6 -31l-37 -86q-8 -16 -33 -8q-47 18 -103 31.5t-122 13.5q-106 0 -163.5 -44t-57.5 -116q0 -61 54 -122.5t138 -137.5q63 -61 117.5 -113.5t94.5 -103.5t61.5 -100t21.5 -105q0 -80 -53 -162.5 t-145 -138.5q25 -39 37 -83t12 -87q0 -61 -24.5 -118.5t-76 -102.5t-127.5 -72.5t-178 -27.5q-35 0 -77 5t-82.5 14t-78.5 21.5t-65 26.5q-12 6 -13 13.5zM354 750q0 -35 15.5 -67t46 -68.5t75 -81l101.5 -101.5q27 -29 63.5 -63.5t59.5 -51.5q49 33 76.5 80t27.5 95 q0 41 -15.5 75.5t-45 71.5t-72.5 79t-98 97q-33 35 -63.5 63.5t-47.5 51.5q-51 -29 -87 -78t-36 -102z" />
<glyph unicode="&#xa8;" horiz-adv-x="1116" d="M403 1358q0 23 10.5 45t28 39.5t39.5 28t47 10.5q37 0 66 -29t29 -68q0 -25 -12.5 -46t-31 -38.5t-41 -27.5t-42.5 -10q-39 0 -67 28.5t-26 67.5zM760 1358q0 47 40 85t87 38q39 0 66.5 -29t27.5 -68q0 -23 -11.5 -45t-29.5 -39.5t-40.5 -27.5t-43.5 -10 q-41 0 -68.5 28.5t-27.5 67.5z" />
<glyph unicode="&#xa9;" horiz-adv-x="1681" d="M182 717q0 158 56.5 293t156 234t235.5 155.5t294 56.5t293 -56.5t234 -155.5t155.5 -234t56.5 -293t-56.5 -293t-155.5 -234.5t-234.5 -156t-292.5 -56.5q-158 0 -294 56.5t-235.5 156t-156 234.5t-56.5 293zM285 717q0 -139 48 -258t134 -205t202.5 -134t254.5 -48 q135 0 251.5 48t202.5 134t134.5 205t48.5 258t-48.5 257t-134.5 204t-202.5 134t-251.5 48q-137 0 -254 -48t-203 -134t-134 -204t-48 -257zM528 700q0 109 28 198t80 151.5t126 97.5t164 35q86 0 155.5 -27t122.5 -86q4 -8 6 -16.5t-10 -20.5q-2 0 -11 -9t-20.5 -19.5 t-20.5 -18.5l-9 -8q-14 -10 -35 8q-35 35 -78 53.5t-98 18.5q-68 0 -117 -26.5t-82 -74t-49 -113t-16 -143.5t16 -143t49 -112.5t83 -74t116 -26.5q57 0 101 20.5t79 55.5q16 16 33 4l61 -51q14 -10 11 -18.5t-7 -14.5q-53 -59 -119.5 -91t-160.5 -32q-92 0 -166 36 t-125 99.5t-79 152.5t-28 195z" />
<glyph unicode="&#xaa;" horiz-adv-x="768" d="M121 815q0 217 103.5 339t297.5 122q47 0 110.5 -5t135.5 -24q29 -10 33 -23.5t0 -31.5q-47 -287 -80 -571q-2 -16 -9 -23.5t-24 -15.5q-72 -31 -149.5 -40.5t-130.5 -9.5q-154 0 -220.5 76t-66.5 207zM272 836q0 -94 44 -135.5t130 -41.5q29 0 67 4.5t71 14.5 q14 117 30.5 229.5t34.5 225.5q-39 10 -73.5 12t-63.5 2q-47 0 -90 -15.5t-77 -51.5t-53.5 -96t-19.5 -148z" />
<glyph unicode="&#xab;" horiz-adv-x="960" d="M141 500q2 25 17.5 46t25.5 38l238 321q12 16 25.5 26.5t46.5 10.5h98q18 0 22 -12t-8 -29l-293 -405l189 -394q12 -39 -31 -39h-102q-31 0 -40.5 10.5t-19.5 26.5l-151 322q-8 16 -14.5 38.5t-2.5 39.5zM465 500q4 25 18.5 46t24.5 38l237 321q12 16 25.5 26.5 t44.5 10.5h98q20 0 23.5 -12t-6.5 -29l-293 -405l188 -394q6 -18 -3 -28.5t-27 -10.5h-103q-31 0 -41 10.5t-18 26.5l-152 322q-8 16 -14 38.5t-2 39.5z" />
<glyph unicode="&#xac;" d="M141 651l17 107q4 16 10 25.5t25 9.5h905q18 0 22 -9.5t2 -25.5l-75 -531q-4 -20 -11.5 -25t-25.5 -5h-109q-16 0 -23.5 5t-3.5 25l54 391h-760q-20 0 -24.5 7.5t-2.5 25.5z" />
<glyph unicode="&#xad;" horiz-adv-x="655" d="M78 516l20 139q2 16 8.5 24.5t24.5 8.5h461q16 0 21 -8t3 -25l-22 -139q-2 -16 -7 -24.5t-24 -8.5h-459q-20 0 -25 8.5t-1 24.5z" />
<glyph unicode="&#xae;" horiz-adv-x="1130" d="M184 983q0 98 35 184t97.5 149.5t146.5 99.5t182 36t182 -36t145.5 -99.5t97.5 -149.5t36 -184t-37 -182t-99.5 -147.5t-146.5 -99.5t-178 -36q-98 0 -182 36t-146.5 99.5t-97.5 147.5t-35 182zM266 983q0 -80 29 -150.5t79 -123t119.5 -83t151.5 -30.5q80 0 148.5 30.5 t120 83t80 123t28.5 150.5q0 82 -28.5 153.5t-79 125t-120 83t-149.5 29.5q-82 0 -151.5 -29.5t-119.5 -83t-79 -125t-29 -153.5zM451 725v496q0 25 9 37t36 12h182q80 0 127 -46t47 -118q0 -43 -23.5 -80t-60.5 -59q31 -12 43 -34t20 -48l46 -156q4 -4 -0.5 -13t-16.5 -9 h-53q-16 0 -19 16l-45 147q-10 41 -35.5 56.5t-62.5 15.5h-108v-217q0 -12 -4.5 -15t-16.5 -3h-49q-10 0 -13 3t-3 15zM537 1018h127q53 0 76.5 24.5t23.5 59.5q0 31 -20.5 58.5t-73.5 27.5h-133v-170z" />
<glyph unicode="&#xaf;" horiz-adv-x="655" d="M180 1223l10 77q4 16 10.5 24.5t24.5 8.5h477q18 0 22.5 -8t0.5 -25l-10 -77q-4 -16 -9.5 -24.5t-23.5 -8.5h-475q-20 0 -25.5 8t-1.5 25z" />
<glyph unicode="&#xb0;" horiz-adv-x="759" d="M160 1151q0 61 22.5 113.5t61.5 89.5t91 58.5t114 21.5q61 0 112 -21.5t90 -58.5t60.5 -89.5t21.5 -113.5q0 -63 -22.5 -115.5t-60.5 -90.5t-90 -58.5t-114 -20.5q-61 0 -113 20.5t-90 58.5t-60.5 90t-22.5 116zM270 1151q0 -80 50.5 -133t125.5 -53q78 0 129.5 53 t51.5 133q0 76 -51.5 128t-126.5 52q-78 0 -128.5 -52t-50.5 -128z" />
<glyph unicode="&#xb1;" d="M53 27l19 116q2 14 7 20.5t25 6.5h906q18 0 22 -6t2 -21l-18 -116q0 -16 -6 -22.5t-27 -6.5h-905q-20 0 -23.5 6t-1.5 23zM156 721l18 106q2 16 8 24.5t25 8.5h366l56 391q2 20 10 25.5t25 5.5h110q16 0 23.5 -5t5.5 -26l-55 -391h364q18 0 22.5 -8t4.5 -25l-17 -106 q-2 -16 -8 -24.5t-27 -8.5h-364l-55 -391q-2 -18 -10.5 -23.5t-26.5 -5.5h-109q-16 0 -23 5.5t-3 23.5l53 391h-365q-20 0 -25 8.5t-3 24.5z" />
<glyph unicode="&#xb2;" horiz-adv-x="792" d="M131 811q0 49 37 103.5t92 106.5t118.5 96t117.5 73q88 49 128 82t40 82q0 43 -37.5 65.5t-100.5 22.5q-45 0 -99 -16.5t-101 -43.5q-16 -8 -28.5 -12t-23.5 12l-38 64q-4 14 -1 24.5t19 22.5q61 39 138 61.5t147 22.5q117 0 194.5 -48t77.5 -153q0 -59 -21.5 -103 t-57.5 -78t-83 -62.5t-98 -57.5q-70 -41 -142.5 -91t-111.5 -124h414q27 0 27.5 -8t-1.5 -23l-8 -65q-2 -10 -9 -21.5t-26 -11.5h-469q-53 0 -73.5 22.5t-20.5 57.5z" />
<glyph unicode="&#xb3;" horiz-adv-x="792" d="M117 823q0 8 6 15q10 16 20.5 31.5t20.5 29.5q8 12 18 12q6 0 27 -10q37 -23 91 -39t108 -16q102 0 152 45t50 106q0 45 -39 78t-120 33h-45q-27 0 -34 7t-3 26l10 63q4 16 11 23.5t28 7.5h41q76 0 121 31.5t45 89.5q0 49 -42 67.5t-94 18.5q-53 0 -104 -14.5t-94 -32.5 q-10 -4 -19.5 -8.5t-17.5 -4.5t-14 13l-31 65q-4 12 -4 17q0 12 20 24q66 39 142.5 55.5t150.5 16.5q53 0 100.5 -13.5t82 -38t55 -60.5t20.5 -83q0 -68 -34.5 -119t-94.5 -81q0 -2 -1 -2t-1 -2v-3q57 -20 85 -66t28 -108q0 -57 -25.5 -108t-72 -89t-109.5 -59.5t-141 -21.5 t-152 19.5t-127 60.5q-14 12 -14 24z" />
<glyph unicode="&#xb4;" horiz-adv-x="923" d="M528 1253l177 316q6 10 15 17t25 3l132 -37q16 -4 17 -13t-7 -19l-256 -308q-12 -16 -21.5 -18t-21.5 2l-51 23q-25 8 -9 34z" />
<glyph unicode="&#xb6;" horiz-adv-x="999" d="M143 1012q0 102 35 181t93.5 133t134 82t157.5 28h172q18 0 19 -21l-101 -704q0 -20 -22 -21h-172q-74 0 -132.5 24.5t-99.5 67.5t-62.5 102.5t-21.5 127.5zM348 -285l6 90v2q0 18 19 23q86 8 139 28.5t86 54.5t48.5 80t23.5 105l184 1317q0 10 8 15.5t17 5.5h90 q18 0 18 -19v-2l-184 -1296q-14 -98 -36 -174t-68 -129.5t-124.5 -83t-207.5 -35.5q-8 0 -13.5 3t-5.5 15z" />
<glyph unicode="&#xb7;" horiz-adv-x="524" d="M150 586q0 35 13 65.5t34.5 53t51 36t62.5 13.5q57 0 91 -35t34 -88q0 -35 -13 -64.5t-37 -52t-53.5 -36t-62.5 -13.5q-53 0 -86.5 33.5t-33.5 87.5z" />
<glyph unicode="&#xb8;" horiz-adv-x="968" d="M250 -389q-2 6 6 20l18 41q10 16 16.5 16.5t18.5 -3.5q29 -10 59.5 -16.5t59.5 -6.5q53 0 82 19.5t29 56.5q0 35 -31 50t-76 15h-34t-17 9q-10 10 -8 21t10 26l74 161q4 6 8 10.5t16 4.5h62q10 0 10 -5t-2 -10l-62 -133q100 -6 139.5 -52t39.5 -99q0 -31 -15.5 -61.5 t-46.5 -55.5t-74 -40t-98 -15q-49 0 -96 10t-76 27q-10 4 -12 10z" />
<glyph unicode="&#xb9;" horiz-adv-x="792" d="M209 738q-4 7 0 28l8 63q2 18 9 24.5t30 6.5h131l80 561l-135 -24q-14 -2 -22.5 2t-4.5 24l6 56q4 18 9.5 26t23.5 15l197 49q37 10 63.5 0t20.5 -51l-93 -658h136q23 0 28.5 -6t1.5 -25l-8 -63q-4 -20 -11 -27.5t-30 -7.5h-413q-23 0 -27 7z" />
<glyph unicode="&#xba;" horiz-adv-x="761" d="M121 811q0 113 30.5 199t83 144t121 89t146.5 31q143 0 213.5 -79t70.5 -224q0 -104 -29.5 -185t-79.5 -138.5t-120 -87.5t-149 -30q-137 0 -212 72t-75 209zM266 829q0 -78 34 -126t120 -48q61 0 104 29t71 74t40 100t12 109q0 76 -34.5 129t-118.5 53 q-57 0 -100.5 -26.5t-71 -71.5t-42 -102.5t-14.5 -119.5z" />
<glyph unicode="&#xbb;" horiz-adv-x="960" d="M50.5 73.5q-5.5 10.5 8.5 28.5l297 396l-178 403q-8 16 1 28.5t28 12.5h100q29 0 39 -10t19 -27l147 -321q6 -16 14.5 -37t3.5 -47q-4 -16 -16 -39t-22 -37l-244 -324q-10 -16 -24.5 -26.5t-45.5 -10.5h-104q-18 0 -23.5 10.5zM378 73.5q-5 10.5 7 28.5l297 396l-180 403 q-4 16 4 28.5t26 12.5h99q31 0 40 -10t19 -27l146 -321q6 -16 14 -37t4 -47q-4 -16 -16.5 -39t-22.5 -37l-242 -324q-10 -16 -25.5 -26.5t-45.5 -10.5h-103q-16 0 -21 10.5z" />
<glyph unicode="&#xbc;" horiz-adv-x="1781" d="M256 554q-4 7 0 28l8 63q2 18 9.5 24.5t29.5 6.5h131l80 561l-135 -25q-14 -2 -22.5 2.5t-4.5 24.5l6 55q4 18 9.5 26.5t23.5 14.5l197 49q37 10 63.5 0t20.5 -51l-92 -657h135q23 0 29 -6t1 -25l-8 -63q-4 -20 -11 -27.5t-30 -7.5h-413q-23 0 -27 7zM426 -16l1012 1413 q10 16 17 22t24 6h69q10 0 16.5 -6t-3.5 -22l-1012 -1413q-10 -16 -20.5 -22.5t-26.5 -6.5h-62q-31 0 -14 29zM934 238q0 2 2 13t2 13q4 23 12 38t27 34l436 457q20 20 40 35.5t48 15.5h45q37 0 51.5 -14.5t10.5 -53.5l-68 -473h80q23 0 26 -10t1 -27l-9 -51 q-4 -16 -9 -25.5t-27 -9.5h-80l-21 -147q-4 -23 -12 -28t-31 -5h-69q-18 0 -26.5 5t-6.5 28l22 145h-383q-27 0 -47 9.5t-14 50.5zM1128 309l2 -6h267l49 340h-4q-2 0 -2 2z" />
<glyph unicode="&#xbd;" horiz-adv-x="1781" d="M211 554q-4 7 0 28l8 63q2 18 9.5 24.5t29.5 6.5h131l80 561l-135 -25q-14 -2 -22.5 2.5t-4.5 24.5l6 55q4 18 9.5 26.5t23.5 14.5l197 49q37 10 63.5 0t20.5 -51l-92 -657h135q23 0 29 -6t1 -25l-8 -63q-4 -20 -11 -27.5t-30 -7.5h-413q-23 0 -27 7zM362 -16l1012 1413 q10 16 17.5 22t23.5 6h70q10 0 16 -6t-4 -22l-1012 -1413q-10 -16 -20 -22.5t-27 -6.5h-61q-31 0 -15 29zM1012 80q0 49 36.5 103.5t92 105.5t119 96t116.5 74q90 47 130 80.5t40 81.5q0 45 -38 67.5t-99 22.5q-45 0 -100.5 -16.5t-102.5 -45.5q-14 -8 -26.5 -11t-22.5 13 l-39 64q-6 14 -2 23.5t21 21.5q61 41 137 63.5t145 22.5q119 0 197 -48t78 -153q0 -59 -21.5 -103t-57.5 -79t-84 -63.5t-99 -57.5q-70 -39 -142.5 -89t-111.5 -124h415q25 0 27 -8t0 -25l-10 -63q-2 -12 -8.5 -22.5t-26.5 -10.5h-467q-53 0 -74.5 22.5t-21.5 57.5z" />
<glyph unicode="&#xbe;" horiz-adv-x="1781" d="M199 639q0 8 6 14q10 16 20.5 31.5t20.5 30.5q8 12 18 12q6 0 27 -10q37 -23 91 -39t107 -16q102 0 152.5 45t50.5 106q0 45 -39 78t-121 33h-45q-27 0 -34 7t-2 25l10 64q4 16 11 23.5t28 7.5h41q76 0 121 31.5t45 88.5q0 49 -42 67.5t-94 18.5q-53 0 -104 -14t-94 -33 q-10 -4 -19.5 -8t-17.5 -4t-14 12l-31 66q-4 12 -4 16q0 12 20 25q66 39 142.5 55.5t150.5 16.5q53 0 100.5 -13.5t82 -38t55 -60.5t20.5 -83q0 -68 -35 -119t-94 -82q0 -2 -1 -2t-1 -2v-2q57 -20 85 -66.5t28 -107.5q0 -57 -26 -108.5t-72 -89t-109 -59t-141 -21.5t-152 19 t-127 60q-14 12 -14 25zM451 -16l1011 1413q10 16 17.5 22t23.5 6h70q10 0 16 -6t-4 -22l-1012 -1413q-10 -16 -20 -22.5t-27 -6.5h-61q-31 0 -14 29zM989 238q0 2 2 13t2 13q4 23 12.5 38t26.5 34l436 457q20 20 40 35.5t48 15.5h46q37 0 51 -14.5t10 -53.5l-68 -473h80 q23 0 26 -10t1 -27l-8 -51q-4 -16 -9.5 -25.5t-27.5 -9.5h-80l-21 -147q-4 -23 -12 -28t-31 -5h-69q-18 0 -26.5 5t-6.5 28l23 145h-383q-27 0 -47.5 9.5t-14.5 50.5zM1184 309l2 -6h266l49 340h-4q-2 0 -2 2z" />
<glyph unicode="&#xbf;" horiz-adv-x="1003" d="M45 -78q0 70 22.5 126t59.5 105.5t84 90.5t96 80q43 35 86 67.5t78 67.5t58.5 72.5t31.5 80.5l6 58q4 18 8.5 22t18.5 4h125q14 0 21.5 -5t2.5 -21l-10 -64q-10 -70 -40.5 -123t-74 -97t-93.5 -82t-99 -75q-86 -66 -142.5 -137.5t-56.5 -144.5q0 -33 10.5 -65t36 -56.5 t69.5 -39.5t114 -15q33 0 73.5 7t84.5 21.5t88.5 35t82.5 44.5q14 10 27.5 10t20.5 -12l53 -84q14 -25 -17 -43q-49 -37 -104 -63.5t-111.5 -44t-112 -25.5t-100.5 -8q-86 0 -158.5 18.5t-126 57.5t-83 98t-29.5 139zM557 915q0 68 46 116t112 48q53 0 86 -32.5t33 -85.5 q0 -33 -13.5 -63t-36 -51.5t-51 -34.5t-61.5 -13q-16 0 -36 5t-38 19.5t-29.5 36t-11.5 55.5z" />
<glyph unicode="&#xc0;" horiz-adv-x="1228" d="M-17 11.5q-3 11.5 1 27.5l637 1317q23 49 44 64.5t68 17.5h58q53 0 69.5 -17.5t26.5 -64.5l262 -1317q4 -14 -2 -26.5t-25 -12.5h-121q-18 0 -29 4t-16 27l-55 301h-561l-141 -301q-10 -16 -19.5 -23.5t-27.5 -7.5h-146q-20 0 -23 11.5zM410 498h460l-71 426l-51 299h-11 l-131 -289zM469 1749l82 111q12 12 22.5 10t16.5 -10l272 -236q14 -12 14.5 -19.5t-8.5 -19.5l-34 -51q-14 -20 -41 -4l-322 184q-23 12 -2 35z" />
<glyph unicode="&#xc1;" horiz-adv-x="1228" d="M-17 11.5q-3 11.5 1 27.5l637 1317q23 49 44 64.5t68 17.5h58q53 0 69.5 -17.5t26.5 -64.5l262 -1317q4 -14 -2 -26.5t-25 -12.5h-121q-18 0 -29 4t-16 27l-55 301h-561l-141 -301q-10 -16 -19.5 -23.5t-27.5 -7.5h-146q-20 0 -23 11.5zM410 498h460l-71 426l-51 299h-11 l-131 -289zM692 1609.5q0 8.5 17 18.5l311 207q10 6 20.5 9t18.5 -11l65 -117q14 -23 -8 -33l-358 -159q-16 -6 -23.5 -2t-11.5 14l-25 53q-6 12 -6 20.5z" />
<glyph unicode="&#xc2;" horiz-adv-x="1228" d="M-17 11.5q-3 11.5 1 27.5l637 1317q23 49 44 64.5t68 17.5h58q53 0 69.5 -17.5t26.5 -64.5l262 -1317q4 -14 -2 -26.5t-25 -12.5h-121q-18 0 -29 4t-16 27l-55 301h-561l-141 -301q-10 -16 -19.5 -23.5t-27.5 -7.5h-146q-20 0 -23 11.5zM410 498h460l-71 426l-51 299h-11 l-131 -289zM455 1569q-12 16 4 30l274 205q49 35 84 35q16 0 34.5 -5t43.5 -30l209 -205q18 -18 -2 -38l-33 -35q-10 -10 -17.5 -7t-23.5 9l-237 135l-275 -137q-23 -12 -33 6z" />
<glyph unicode="&#xc3;" horiz-adv-x="1228" d="M-17 11.5q-3 11.5 1 27.5l637 1317q23 49 44 64.5t68 17.5h58q53 0 69.5 -17.5t26.5 -64.5l262 -1317q4 -14 -2 -26.5t-25 -12.5h-121q-18 0 -29 4t-16 27l-55 301h-561l-141 -301q-10 -16 -19.5 -23.5t-27.5 -7.5h-146q-20 0 -23 11.5zM410 498h460l-71 426l-51 299h-11 l-131 -289zM413 1590q-3 5 7 20q41 63 97 102t128 39q35 0 64.5 -11t57.5 -24.5t53.5 -25t53.5 -11.5q63 0 105 60q10 14 15 16t16 -2l80 -29q25 -8 16 -30q-76 -154 -221 -154q-35 0 -66 11.5t-60.5 24.5t-59 24.5t-62.5 11.5q-53 0 -107 -60q-8 -10 -14 -14t-18 4l-70 35 q-12 8 -15 13z" />
<glyph unicode="&#xc4;" horiz-adv-x="1228" d="M-17 11.5q-3 11.5 1 27.5l637 1317q23 49 44 64.5t68 17.5h58q53 0 69.5 -17.5t26.5 -64.5l262 -1317q4 -14 -2 -26.5t-25 -12.5h-121q-18 0 -29 4t-16 27l-55 301h-561l-141 -301q-10 -16 -19.5 -23.5t-27.5 -7.5h-146q-20 0 -23 11.5zM410 498h460l-71 426l-51 299h-11 l-131 -289zM473 1624q0 23 10.5 45.5t27.5 39.5t39.5 27.5t47.5 10.5q37 0 65.5 -28.5t28.5 -67.5q0 -25 -12 -46.5t-30.5 -39t-41 -27.5t-43.5 -10q-39 0 -66.5 28.5t-25.5 67.5zM829 1624q0 47 40 85t87 38q39 0 67 -28.5t28 -67.5q0 -23 -11.5 -45.5t-30 -40t-41 -27.5 t-42.5 -10q-41 0 -69 28.5t-28 67.5z" />
<glyph unicode="&#xc5;" horiz-adv-x="1228" d="M-17 11.5q-3 11.5 1 27.5l637 1317q23 49 44 64.5t68 17.5h58q53 0 69.5 -17.5t26.5 -64.5l262 -1317q4 -14 -2 -26.5t-25 -12.5h-121q-18 0 -29 4t-16 27l-55 301h-561l-141 -301q-10 -16 -19.5 -23.5t-27.5 -7.5h-146q-20 0 -23 11.5zM410 498h460l-71 426l-51 299h-11 l-131 -289zM594 1636q0 47 17.5 88t48 71t70.5 47.5t85 17.5q74 0 121 -45.5t47 -118.5q0 -47 -18.5 -86t-49 -69t-70.5 -46t-83 -16q-74 0 -121 43t-47 114zM682 1649q0 -39 24.5 -63.5t65.5 -24.5q47 0 84 35.5t37 89.5q0 41 -24.5 65.5t-65.5 24.5q-51 0 -86 -37t-35 -90 z" />
<glyph unicode="&#xc6;" horiz-adv-x="1695" d="M-16 14q0 6 2 9q139 297 277 589.5t280 589.5q47 102 133 168t229 66h801q20 0 23.5 -10.5t1.5 -24.5l-15 -103q-2 -18 -8 -25t-27 -7h-471q-88 0 -132 -40t-56 -126q-10 -66 -18.5 -129.5t-18.5 -128.5h592q23 0 25 -9.5t0 -25.5l-13 -94q-2 -16 -8 -25.5t-27 -9.5h-591 q-12 -86 -24.5 -172t-23.5 -172q-6 -35 -3 -64.5t18.5 -51t45.5 -35t81 -13.5h528q18 0 21.5 -9t1.5 -24l-15 -106q-2 -16 -7 -23.5t-23 -7.5h-545q-156 0 -221.5 69.5t-65.5 192.5q0 16 1 34.5t3 37.5h-416q-35 -78 -71.5 -156t-73.5 -155q-12 -23 -35 -23h-139 q-16 0 -16 14zM385 485h371q23 152 43 300.5t41 299.5q10 59 25.5 110.5t39.5 78.5q-86 0 -136 -26.5t-77 -86.5q-25 -49 -46 -95t-44 -95z" />
<glyph unicode="&#xc7;" horiz-adv-x="1187" d="M141 555q0 211 50.5 379t141.5 282.5t217 176t277 61.5q37 0 83 -3t96.5 -12t101.5 -25.5t98 -43.5q10 -6 11.5 -15t-9.5 -32l-37 -88q-12 -29 -38 -14q-70 35 -152 48t-145 13q-145 0 -242.5 -63.5t-156 -167t-82 -233.5t-23.5 -263q0 -90 16.5 -165t57 -128t110.5 -84 t176 -31q88 0 176 24t162 56q23 10 30 3t13 -19l43 -86q10 -23 4 -34t-20 -19q-109 -53 -225.5 -72.5t-212.5 -22.5l-41 -90q100 -6 139 -52t39 -99q0 -31 -15.5 -61.5t-46 -55.5t-73.5 -40t-99 -15q-49 0 -96 10t-76 27q-10 4 -12 10t6 20l19 41q10 16 16 16.5t18 -3.5 q29 -10 59.5 -16.5t59.5 -6.5q53 0 82 19.5t29 56.5q0 35 -31 50t-76 15h-34t-17 9q-10 10 -8 21t10 26l55 123q-428 39 -428 573z" />
<glyph unicode="&#xc8;" horiz-adv-x="1148" d="M143.5 215.5q-6.5 63.5 3.5 134.5l101 733q10 70 30.5 134.5t61.5 112.5t105.5 77t162.5 29h549q23 0 29 -10.5t4 -32.5l-14 -86q-2 -23 -10.5 -32t-32.5 -9h-521q-84 0 -125 -38t-53 -118l-37 -266h631q23 0 28 -10.5t3 -32.5l-12 -78q-2 -20 -10.5 -30.5t-30.5 -10.5 h-631l-51 -356q-10 -70 19.5 -112t115.5 -42h561q25 0 30 -10t1 -33l-11 -86q-4 -23 -12 -33t-31 -10h-563q-102 0 -162.5 28.5t-91 76t-37 111zM543 1749l82 111q12 12 22 10t17 -10l272 -236q14 -12 14 -19.5t-8 -19.5l-35 -51q-14 -20 -41 -4l-321 184q-23 12 -2 35z" />
<glyph unicode="&#xc9;" horiz-adv-x="1148" d="M143.5 215.5q-6.5 63.5 3.5 134.5l101 733q10 70 30.5 134.5t61.5 112.5t105.5 77t162.5 29h549q23 0 29 -10.5t4 -32.5l-14 -86q-2 -23 -10.5 -32t-32.5 -9h-521q-84 0 -125 -38t-53 -118l-37 -266h631q23 0 28 -10.5t3 -32.5l-12 -78q-2 -20 -10.5 -30.5t-30.5 -10.5 h-631l-51 -356q-10 -70 19.5 -112t115.5 -42h561q25 0 30 -10t1 -33l-11 -86q-4 -23 -12 -33t-31 -10h-563q-102 0 -162.5 28.5t-91 76t-37 111zM692 1609.5q0 8.5 17 18.5l311 207q10 6 20.5 9t18.5 -11l65 -117q14 -23 -8 -33l-358 -159q-16 -6 -23.5 -2t-11.5 14l-25 53 q-6 12 -6 20.5z" />
<glyph unicode="&#xca;" horiz-adv-x="1148" d="M143.5 215.5q-6.5 63.5 3.5 134.5l101 733q10 70 30.5 134.5t61.5 112.5t105.5 77t162.5 29h549q23 0 29 -10.5t4 -32.5l-14 -86q-2 -23 -10.5 -32t-32.5 -9h-521q-84 0 -125 -38t-53 -118l-37 -266h631q23 0 28 -10.5t3 -32.5l-12 -78q-2 -20 -10.5 -30.5t-30.5 -10.5 h-631l-51 -356q-10 -70 19.5 -112t115.5 -42h561q25 0 30 -10t1 -33l-11 -86q-4 -23 -12 -33t-31 -10h-563q-102 0 -162.5 28.5t-91 76t-37 111zM489 1569q-12 16 5 30l274 205q49 35 84 35q16 0 34.5 -5t43.5 -30l209 -205q18 -18 -2 -38l-33 -35q-10 -10 -17.5 -7t-23.5 9 l-238 135l-274 -137q-23 -12 -33 6z" />
<glyph unicode="&#xcb;" horiz-adv-x="1148" d="M143.5 215.5q-6.5 63.5 3.5 134.5l101 733q10 70 30.5 134.5t61.5 112.5t105.5 77t162.5 29h549q23 0 29 -10.5t4 -32.5l-14 -86q-2 -23 -10.5 -32t-32.5 -9h-521q-84 0 -125 -38t-53 -118l-37 -266h631q23 0 28 -10.5t3 -32.5l-12 -78q-2 -20 -10.5 -30.5t-30.5 -10.5 h-631l-51 -356q-10 -70 19.5 -112t115.5 -42h561q25 0 30 -10t1 -33l-11 -86q-4 -23 -12 -33t-31 -10h-563q-102 0 -162.5 28.5t-91 76t-37 111zM504 1622q0 23 10 45.5t27.5 39.5t40 27.5t47.5 10.5q37 0 65.5 -28.5t28.5 -67.5q0 -25 -12.5 -46.5t-30.5 -39t-41 -27.5 t-43 -10q-39 0 -66.5 28.5t-25.5 67.5zM860 1622q0 47 40 85t87 38q39 0 66.5 -28.5t27.5 -67.5q0 -23 -11 -45.5t-29.5 -40t-41 -27.5t-43.5 -10q-41 0 -68.5 28.5t-27.5 67.5z" />
<glyph unicode="&#xcc;" horiz-adv-x="532" d="M96 1749l82 111q12 12 22.5 10t16.5 -10l272 -236q14 -12 14.5 -19.5t-7.5 -19.5l-35 -51q-14 -20 -41 -4l-322 184q-23 12 -2 35zM127 39l190 1356q4 25 15.5 32t34.5 7h100q23 0 31 -7.5t4 -31.5l-193 -1356q-2 -25 -11 -32t-32 -7h-100q-23 0 -33 7t-6 32z" />
<glyph unicode="&#xcd;" horiz-adv-x="532" d="M127 39l190 1356q4 25 15.5 32t34.5 7h100q23 0 31 -7.5t4 -31.5l-193 -1356q-2 -25 -11 -32t-32 -7h-100q-23 0 -33 7t-6 32zM373 1609.5q0 8.5 16 18.5l311 207q10 6 20.5 9t18.5 -11l66 -117q14 -23 -8 -33l-359 -159q-16 -6 -23 -2t-12 14l-24 53q-6 12 -6 20.5z" />
<glyph unicode="&#xce;" horiz-adv-x="532" d="M106 1569q-12 16 5 30l274 205q49 35 84 35q16 0 34.5 -5t43.5 -30l209 -205q18 -18 -2 -38l-33 -35q-10 -10 -17.5 -7t-23.5 9l-238 135l-274 -137q-23 -12 -33 6zM127 39l190 1356q4 25 15.5 32t34.5 7h100q23 0 31 -7.5t4 -31.5l-193 -1356q-2 -25 -11 -32t-32 -7 h-100q-23 0 -33 7t-6 32z" />
<glyph unicode="&#xcf;" horiz-adv-x="532" d="M127 39l190 1356q4 25 15.5 32t34.5 7h100q23 0 31 -7.5t4 -31.5l-193 -1356q-2 -25 -11 -32t-32 -7h-100q-23 0 -33 7t-6 32zM166 1628q0 23 10 45.5t27.5 40t40 27.5t47.5 10q37 0 65.5 -28.5t28.5 -67.5q0 -25 -12.5 -46.5t-30.5 -39t-40.5 -27.5t-43.5 -10 q-39 0 -66.5 28.5t-25.5 67.5zM522 1628q0 47 40 85t87 38q39 0 66.5 -28.5t27.5 -67.5q0 -23 -11 -45.5t-29.5 -40t-41 -27.5t-43.5 -10q-41 0 -68.5 28.5t-27.5 67.5z" />
<glyph unicode="&#xd0;" horiz-adv-x="1341" d="M61 688l13 86q2 16 8 23.5t24 7.5h101l74 524q8 53 33.5 79t80.5 26q92 0 180.5 1t178.5 1q274 0 403 -153t129 -423q0 -188 -45 -346t-134 -272.5t-222 -178t-312 -63.5h-378q-55 0 -75 26.5t-11 75.5l77 553h-100q-20 0 -23.5 9.5t-1.5 23.5zM303 170h275 q143 0 242.5 56.5t161.5 149.5t90 216t28 256q0 92 -17.5 169t-60.5 132t-115.5 86t-185.5 31h-264q-16 -117 -32.5 -230.5t-33.5 -230.5h328q20 0 23 -8.5t1 -22.5l-12 -86q-2 -18 -8 -25.5t-25 -7.5h-327z" />
<glyph unicode="&#xd1;" horiz-adv-x="1372" d="M102 39l181 1294q8 51 32.5 77t79.5 26h51q45 0 61.5 -18.5t37.5 -63.5l352 -817l123 -295h6l162 1155q4 25 15 32t34 7h96q23 0 30 -7.5t3 -31.5l-180 -1295q-8 -51 -30.5 -76.5t-80.5 -25.5h-51q-45 0 -62.5 18.5t-35.5 63.5l-373 860l-107 250h-6l-159 -1153 q-4 -25 -13.5 -32t-34.5 -7h-94q-20 0 -30.5 7t-6.5 32zM519.5 1610.5q-3.5 5.5 6.5 19.5q41 63 97.5 102.5t128.5 39.5q35 0 64.5 -11.5t57 -25t53 -24.5t54.5 -11q63 0 104 59q10 14 15.5 16.5t15.5 -1.5l80 -29q25 -8 16 -31q-76 -153 -221 -153q-35 0 -65.5 11t-60 24.5 t-59.5 24.5t-63 11q-53 0 -106 -59q-8 -10 -14.5 -14.5t-18.5 4.5l-69 34q-12 8 -15.5 13.5z" />
<glyph unicode="&#xd2;" horiz-adv-x="1400" d="M143 516q0 223 55.5 398.5t150.5 295t222.5 183t272.5 63.5q252 0 381 -145.5t129 -409.5q0 -188 -46 -356t-136.5 -294t-221.5 -200t-301 -74q-248 0 -377 140.5t-129 398.5zM326 537q0 -88 18 -161t58 -124t104.5 -79t159.5 -28q131 0 228 63.5t160.5 169t94.5 241 t31 278.5q0 82 -17.5 153.5t-58.5 125t-107.5 83t-162.5 29.5q-131 0 -227.5 -64.5t-159 -170t-92 -240.5t-29.5 -276zM596 1749l82 111q12 12 22.5 10t16.5 -10l272 -236q14 -12 14.5 -19.5t-8.5 -19.5l-34 -51q-14 -20 -41 -4l-322 184q-23 12 -2 35z" />
<glyph unicode="&#xd3;" horiz-adv-x="1400" d="M143 516q0 223 55.5 398.5t150.5 295t222.5 183t272.5 63.5q252 0 381 -145.5t129 -409.5q0 -188 -46 -356t-136.5 -294t-221.5 -200t-301 -74q-248 0 -377 140.5t-129 398.5zM326 537q0 -88 18 -161t58 -124t104.5 -79t159.5 -28q131 0 228 63.5t160.5 169t94.5 241 t31 278.5q0 82 -17.5 153.5t-58.5 125t-107.5 83t-162.5 29.5q-131 0 -227.5 -64.5t-159 -170t-92 -240.5t-29.5 -276zM778 1609.5q0 8.5 17 18.5l311 207q10 6 20.5 9t18.5 -11l65 -117q14 -23 -8 -33l-358 -159q-16 -6 -23.5 -2t-11.5 14l-25 53q-6 12 -6 20.5z" />
<glyph unicode="&#xd4;" horiz-adv-x="1400" d="M143 516q0 223 55.5 398.5t150.5 295t222.5 183t272.5 63.5q252 0 381 -145.5t129 -409.5q0 -188 -46 -356t-136.5 -294t-221.5 -200t-301 -74q-248 0 -377 140.5t-129 398.5zM326 537q0 -88 18 -161t58 -124t104.5 -79t159.5 -28q131 0 228 63.5t160.5 169t94.5 241 t31 278.5q0 82 -17.5 153.5t-58.5 125t-107.5 83t-162.5 29.5q-131 0 -227.5 -64.5t-159 -170t-92 -240.5t-29.5 -276zM549 1569q-12 16 4 30l274 205q49 35 84 35q16 0 35 -5t43 -30l209 -205q18 -18 -2 -38l-33 -35q-10 -10 -17 -7t-24 9l-237 135l-275 -137 q-23 -12 -32 6z" />
<glyph unicode="&#xd5;" horiz-adv-x="1400" d="M143 516q0 223 55.5 398.5t150.5 295t222.5 183t272.5 63.5q252 0 381 -145.5t129 -409.5q0 -188 -46 -356t-136.5 -294t-221.5 -200t-301 -74q-248 0 -377 140.5t-129 398.5zM326 537q0 -88 18 -161t58 -124t104.5 -79t159.5 -28q131 0 228 63.5t160.5 169t94.5 241 t31 278.5q0 82 -17.5 153.5t-58.5 125t-107.5 83t-162.5 29.5q-131 0 -227.5 -64.5t-159 -170t-92 -240.5t-29.5 -276zM552 1617q-3 5 7 19q41 63 97.5 102.5t127.5 39.5q35 0 65 -11.5t57.5 -24.5t53 -24.5t54.5 -11.5q63 0 104 59q10 14 15.5 16.5t15.5 -1.5l80 -29 q25 -8 16 -31q-76 -153 -221 -153q-35 0 -65.5 11t-60.5 24.5t-59.5 24.5t-62.5 11q-53 0 -106 -59q-8 -10 -14.5 -14t-18.5 4l-70 35q-12 8 -15 13z" />
<glyph unicode="&#xd6;" horiz-adv-x="1400" d="M143 516q0 223 55.5 398.5t150.5 295t222.5 183t272.5 63.5q252 0 381 -145.5t129 -409.5q0 -188 -46 -356t-136.5 -294t-221.5 -200t-301 -74q-248 0 -377 140.5t-129 398.5zM326 537q0 -88 18 -161t58 -124t104.5 -79t159.5 -28q131 0 228 63.5t160.5 169t94.5 241 t31 278.5q0 82 -17.5 153.5t-58.5 125t-107.5 83t-162.5 29.5q-131 0 -227.5 -64.5t-159 -170t-92 -240.5t-29.5 -276zM606 1636q0 23 10.5 45.5t28 40t39.5 27.5t47 10q37 0 65.5 -28.5t28.5 -67.5q0 -25 -12 -46.5t-30.5 -38.5t-41 -27.5t-43.5 -10.5q-39 0 -66.5 28.5 t-25.5 67.5zM963 1636q0 47 40 85t87 38q39 0 66.5 -28.5t27.5 -67.5q0 -23 -11.5 -45.5t-30 -39.5t-41 -27.5t-42.5 -10.5q-41 0 -68.5 28.5t-27.5 67.5z" />
<glyph unicode="&#xd7;" d="M125 347q0 9 16 24l371 336l-272 327q-10 14 -8.5 22.5t16.5 20.5l84 78q12 10 22.5 13t20.5 -11l272 -330l371 334q16 14 25.5 12t19.5 -14l67 -82q10 -12 11.5 -21t-15.5 -24l-370 -334l268 -323q18 -25 -10 -45l-80 -76q-16 -12 -25.5 -14t-19.5 12l-268 323 l-373 -333q-16 -14 -23.5 -13.5t-17.5 15.5l-72 82q-10 12 -10 21z" />
<glyph unicode="&#xd8;" horiz-adv-x="1400" d="M104 18q-18 12 5 37l112 129q-78 133 -78 332q0 223 55.5 398.5t150.5 295t222.5 183t272.5 63.5q238 0 368 -135l117 135q23 23 41 4l33 -26q8 -10 7 -16.5t-11 -20.5l-129 -146q84 -137 84 -350q0 -188 -46 -356t-136.5 -294t-221.5 -200t-301 -74q-244 0 -375 138 l-102 -117q-10 -14 -17.5 -13t-17.5 9zM326 537q0 -55 6 -106.5t22 -92.5l740 846q-41 49 -104.5 76.5t-155.5 27.5q-131 0 -227.5 -64.5t-159 -170t-92 -240.5t-29.5 -276zM397 256q41 -53 105.5 -82t163.5 -29q131 0 228 63.5t160.5 169t94.5 241t31 278.5 q0 59 -8.5 111.5t-28.5 97.5z" />
<glyph unicode="&#xd9;" horiz-adv-x="1351" d="M172 312q-12 124 14 309l105 774q4 25 15 32t32 7h104q23 0 31 -7.5t6 -31.5l-108 -766q-18 -125 -17.5 -216t36.5 -151.5t115 -89.5t218 -29q35 0 108.5 4.5t161.5 20.5l174 1227q4 25 14.5 32t30.5 7h107q23 0 28 -7.5t1 -31.5l-170 -1215q-10 -72 -49 -118t-128 -62 q-76 -14 -161.5 -19.5t-147.5 -5.5q-172 0 -281.5 32t-168 106.5t-70.5 198.5zM590 1749l82 111q12 12 22.5 10t16.5 -10l272 -236q14 -12 14 -19.5t-8 -19.5l-35 -51q-14 -20 -41 -4l-321 184q-23 12 -2 35z" />
<glyph unicode="&#xda;" horiz-adv-x="1351" d="M172 312q-12 124 14 309l105 774q4 25 15 32t32 7h104q23 0 31 -7.5t6 -31.5l-108 -766q-18 -125 -17.5 -216t36.5 -151.5t115 -89.5t218 -29q35 0 108.5 4.5t161.5 20.5l174 1227q4 25 14.5 32t30.5 7h107q23 0 28 -7.5t1 -31.5l-170 -1215q-10 -72 -49 -118t-128 -62 q-76 -14 -161.5 -19.5t-147.5 -5.5q-172 0 -281.5 32t-168 106.5t-70.5 198.5zM731 1609.5q0 8.5 17 18.5l311 207q10 6 20.5 9t18.5 -11l65 -117q14 -23 -8 -33l-358 -159q-16 -6 -23.5 -2t-11.5 14l-25 53q-6 12 -6 20.5z" />
<glyph unicode="&#xdb;" horiz-adv-x="1351" d="M172 312q-12 124 14 309l105 774q4 25 15 32t32 7h104q23 0 31 -7.5t6 -31.5l-108 -766q-18 -125 -17.5 -216t36.5 -151.5t115 -89.5t218 -29q35 0 108.5 4.5t161.5 20.5l174 1227q4 25 14.5 32t30.5 7h107q23 0 28 -7.5t1 -31.5l-170 -1215q-10 -72 -49 -118t-128 -62 q-76 -14 -161.5 -19.5t-147.5 -5.5q-172 0 -281.5 32t-168 106.5t-70.5 198.5zM524 1569q-12 16 4 30l275 205q49 35 84 35q16 0 34.5 -5t43.5 -30l209 -205q18 -18 -3 -38l-32 -35q-10 -10 -17.5 -7t-23.5 9l-238 135l-274 -137q-23 -12 -33 6z" />
<glyph unicode="&#xdc;" horiz-adv-x="1351" d="M172 312q-12 124 14 309l105 774q4 25 15 32t32 7h104q23 0 31 -7.5t6 -31.5l-108 -766q-18 -125 -17.5 -216t36.5 -151.5t115 -89.5t218 -29q35 0 108.5 4.5t161.5 20.5l174 1227q4 25 14.5 32t30.5 7h107q23 0 28 -7.5t1 -31.5l-170 -1215q-10 -72 -49 -118t-128 -62 q-76 -14 -161.5 -19.5t-147.5 -5.5q-172 0 -281.5 32t-168 106.5t-70.5 198.5zM565 1612q0 23 10.5 45t28 39.5t39.5 28t47 10.5q37 0 65.5 -29t28.5 -68q0 -25 -12 -46t-30.5 -38.5t-41 -27.5t-43.5 -10q-39 0 -66.5 28.5t-25.5 67.5zM922 1612q0 47 40 85t87 38 q39 0 66.5 -29t27.5 -68q0 -23 -11.5 -45t-30 -39.5t-41 -27.5t-42.5 -10q-41 0 -68.5 28.5t-27.5 67.5z" />
<glyph unicode="&#xdd;" horiz-adv-x="1120" d="M170 1413q-4 6 1 14.5t17 8.5h138q16 0 22 -5.5t12 -21.5l134 -352l110 -316h8l207 328l223 340q10 16 18.5 21.5t24.5 5.5h150q10 0 11 -8.5t-3 -14.5l-561 -840l-76 -542q-4 -20 -10 -25.5t-25 -5.5h-114q-16 0 -23.5 5t-5.5 26l76 542zM602 1609.5q0 8.5 16 18.5 l312 207q10 6 20.5 9t18.5 -11l65 -117q14 -23 -8 -33l-358 -159q-16 -6 -23.5 -2t-11.5 14l-25 53q-6 12 -6 20.5z" />
<glyph unicode="&#xde;" horiz-adv-x="1202" d="M102 39l193 1364q4 20 11 25.5t24 5.5h121q18 0 25 -5.5t3 -25.5l-33 -234h363q88 0 159.5 -27.5t121 -78.5t76 -123t26.5 -158q0 -74 -22.5 -157.5t-80 -154.5t-154.5 -118t-247 -47h-369l-38 -266q-2 -25 -11.5 -32t-33.5 -7h-97q-20 0 -30.5 7t-6.5 32zM344 473h340 q156 0 236.5 82t80.5 217q0 39 -11 80t-38.5 73.5t-76 53t-121.5 20.5h-334z" />
<glyph unicode="&#xdf;" horiz-adv-x="1101" d="M86 31l135 985q29 219 145.5 340t303.5 121q102 0 172.5 -28t113.5 -74t62.5 -105.5t19.5 -122.5q0 -39 -10 -84t-34.5 -88t-64.5 -81t-98 -63l-2 -6q98 -39 146.5 -130t48.5 -210q0 -106 -31.5 -204.5t-101.5 -172t-177.5 -115.5t-256.5 -38q-14 2 -17.5 4t-3.5 18 l13 91q2 25 26 24q104 4 177 36t118 85t65.5 121.5t20.5 146.5q0 51 -11 97.5t-39 82t-72.5 56t-112.5 20.5q-31 0 -51.5 8.5t-12.5 47.5l6 41q6 29 19.5 39t42.5 10q59 0 104 22.5t76 57t46 79.5t15 93q0 37 -10 71.5t-33.5 62t-60.5 45t-92 17.5q-70 0 -118 -26.5 t-80 -68.5t-49 -93t-24 -99l-143 -1013q-2 -20 -9 -25.5t-24 -5.5h-110q-16 0 -23.5 5t-3.5 26z" />
<glyph unicode="&#xe0;" horiz-adv-x="1112" d="M102 371q0 154 32 285.5t99.5 230t174 155t258.5 56.5q68 0 163 -8.5t203 -36.5q33 -10 37 -25.5t0 -38.5q-35 -240 -65.5 -459t-59.5 -448q-2 -27 -33 -41q-45 -18 -98 -30.5t-107.5 -19.5t-107.5 -10.5t-96 -3.5q-111 0 -187.5 31t-124 84t-68 125t-20.5 154zM279 387 q0 -125 62 -190.5t212 -65.5q23 0 52.5 2t60 6t60.5 10.5t54 16.5q25 197 50.5 379t54.5 370q-51 16 -113.5 22.5t-109.5 6.5q-74 0 -142.5 -27.5t-122 -92t-86 -171t-32.5 -266.5zM424 1511q-16 18 8 31l129 62q16 6 23.5 0.5t15.5 -15.5l191 -317q8 -16 6 -21.5t-13 -13.5 l-53 -35q-12 -6 -21.5 -4t-23.5 16z" />
<glyph unicode="&#xe1;" horiz-adv-x="1112" d="M102 371q0 154 32 285.5t99.5 230t174 155t258.5 56.5q68 0 163 -8.5t203 -36.5q33 -10 37 -25.5t0 -38.5q-35 -240 -65.5 -459t-59.5 -448q-2 -27 -33 -41q-45 -18 -98 -30.5t-107.5 -19.5t-107.5 -10.5t-96 -3.5q-111 0 -187.5 31t-124 84t-68 125t-20.5 154zM279 387 q0 -125 62 -190.5t212 -65.5q23 0 52.5 2t60 6t60.5 10.5t54 16.5q25 197 50.5 379t54.5 370q-51 16 -113.5 22.5t-109.5 6.5q-74 0 -142.5 -27.5t-122 -92t-86 -171t-32.5 -266.5zM578 1253l176 316q6 10 15 17t26 3l131 -37q16 -4 17 -13t-7 -19l-256 -308 q-12 -16 -21.5 -18t-21.5 2l-51 23q-25 8 -8 34z" />
<glyph unicode="&#xe2;" horiz-adv-x="1112" d="M102 371q0 154 32 285.5t99.5 230t174 155t258.5 56.5q68 0 163 -8.5t203 -36.5q33 -10 37 -25.5t0 -38.5q-35 -240 -65.5 -459t-59.5 -448q-2 -27 -33 -41q-45 -18 -98 -30.5t-107.5 -19.5t-107.5 -10.5t-96 -3.5q-111 0 -187.5 31t-124 84t-68 125t-20.5 154zM279 387 q0 -125 62 -190.5t212 -65.5q23 0 52.5 2t60 6t60.5 10.5t54 16.5q25 197 50.5 379t54.5 370q-51 16 -113.5 22.5t-109.5 6.5q-74 0 -142.5 -27.5t-122 -92t-86 -171t-32.5 -266.5zM362 1231q-12 12 3 29l292 266q43 37 82 37q25 0 42.5 -7.5t35.5 -29.5l207 -262 q12 -16 10 -25.5t-14 -19.5l-37 -31q-18 -12 -39 4l-229 192l-285 -196q-20 -16 -37 4z" />
<glyph unicode="&#xe3;" horiz-adv-x="1112" d="M102 371q0 154 32 285.5t99.5 230t174 155t258.5 56.5q68 0 163 -8.5t203 -36.5q33 -10 37 -25.5t0 -38.5q-35 -240 -65.5 -459t-59.5 -448q-2 -27 -33 -41q-45 -18 -98 -30.5t-107.5 -19.5t-107.5 -10.5t-96 -3.5q-111 0 -187.5 31t-124 84t-68 125t-20.5 154zM279 387 q0 -125 62 -190.5t212 -65.5q23 0 52.5 2t60 6t60.5 10.5t54 16.5q25 197 50.5 379t54.5 370q-51 16 -113.5 22.5t-109.5 6.5q-74 0 -142.5 -27.5t-122 -92t-86 -171t-32.5 -266.5zM357.5 1324q-3.5 5 7.5 19q41 63 97 102.5t128 39.5q35 0 64.5 -11.5t57 -24.5t53.5 -24.5 t54 -11.5q63 0 105 60q10 14 15 16t15 -2l80 -29q25 -8 17 -31q-77 -153 -222 -153q-35 0 -65.5 11t-60 24.5t-59.5 25t-62 11.5q-53 0 -107 -60q-8 -10 -14 -14t-19 4l-69 35q-12 8 -15.5 13z" />
<glyph unicode="&#xe4;" horiz-adv-x="1112" d="M102 371q0 154 32 285.5t99.5 230t174 155t258.5 56.5q68 0 163 -8.5t203 -36.5q33 -10 37 -25.5t0 -38.5q-35 -240 -65.5 -459t-59.5 -448q-2 -27 -33 -41q-45 -18 -98 -30.5t-107.5 -19.5t-107.5 -10.5t-96 -3.5q-111 0 -187.5 31t-124 84t-68 125t-20.5 154zM279 387 q0 -125 62 -190.5t212 -65.5q23 0 52.5 2t60 6t60.5 10.5t54 16.5q25 197 50.5 379t54.5 370q-51 16 -113.5 22.5t-109.5 6.5q-74 0 -142.5 -27.5t-122 -92t-86 -171t-32.5 -266.5zM430 1360q0 23 10.5 45t27.5 39.5t39.5 28t47.5 10.5q37 0 65.5 -29t28.5 -68 q0 -25 -12 -46t-30.5 -38.5t-41 -27.5t-43.5 -10q-39 0 -66.5 28.5t-25.5 67.5zM786 1360q0 47 40 85t87 38q39 0 67 -29t28 -68q0 -23 -11.5 -45t-30 -39.5t-41 -27.5t-42.5 -10q-41 0 -69 28.5t-28 67.5z" />
<glyph unicode="&#xe5;" horiz-adv-x="1112" d="M102 371q0 154 32 285.5t99.5 230t174 155t258.5 56.5q68 0 163 -8.5t203 -36.5q33 -10 37 -25.5t0 -38.5q-35 -240 -65.5 -459t-59.5 -448q-2 -27 -33 -41q-45 -18 -98 -30.5t-107.5 -19.5t-107.5 -10.5t-96 -3.5q-111 0 -187.5 31t-124 84t-68 125t-20.5 154zM279 387 q0 -125 62 -190.5t212 -65.5q23 0 52.5 2t60 6t60.5 10.5t54 16.5q25 197 50.5 379t54.5 370q-51 16 -113.5 22.5t-109.5 6.5q-74 0 -142.5 -27.5t-122 -92t-86 -171t-32.5 -266.5zM553 1356q0 47 17.5 88t48 70.5t70.5 47t85 17.5q74 0 121 -45t47 -119q0 -47 -18.5 -86 t-49 -68.5t-70.5 -46t-83 -16.5q-74 0 -121 43t-47 115zM641 1368q0 -39 24.5 -63.5t65.5 -24.5q47 0 84 36t37 89q0 41 -24.5 65.5t-65.5 24.5q-51 0 -86 -37t-35 -90z" />
<glyph unicode="&#xe6;" horiz-adv-x="1656" d="M76 252q0 84 26.5 158.5t85 130t153.5 88.5t232 33q47 0 95.5 -4.5t105.5 -14.5q10 37 18.5 71t8.5 58q0 90 -55.5 130t-163.5 40q-68 0 -146 -12t-131 -29q-16 -6 -24.5 -4t-12.5 18l-22 89q-6 23 22 34q82 33 178.5 46.5t178.5 13.5q121 0 198.5 -39t110.5 -111 q70 76 159 113t193 37q100 0 168 -28t108 -68.5t56 -90t16 -94.5q0 -186 -131 -267t-393 -81q-86 0 -184 12q-6 -47 -6 -86q0 -141 59 -201.5t192 -60.5q66 0 127.5 17.5t108.5 39.5q23 10 35 -10l43 -86q12 -27 -19 -41q-78 -45 -164.5 -60.5t-164.5 -15.5q-195 0 -287 99 q-104 -53 -222 -76t-210 -23q-113 0 -180.5 26t-103.5 66t-47 89t-11 94zM252 274q0 -74 46 -110.5t144 -36.5q18 0 57.5 3t86.5 10t97 22.5t95 40.5q0 4 -2 6q-16 41 -22 83t-6 97q0 53 6 119q-49 6 -96.5 10t-88.5 4q-143 0 -230 -54t-87 -194zM944 614q41 -4 85 -6t79 -2 q102 0 172 11.5t113 34t62.5 58t19.5 85.5q0 29 -9.5 56.5t-33 49t-62.5 34.5t-96 13q-135 0 -219 -84t-111 -250z" />
<glyph unicode="&#xe7;" horiz-adv-x="950" d="M106 406q0 154 35 280.5t100.5 218.5t159 142.5t211.5 50.5q80 0 167 -16.5t149 -55.5q20 -12 6 -43l-37 -84q-12 -29 -41 -12q-45 23 -108.5 37t-129.5 14q-92 0 -156.5 -46t-105.5 -121t-59 -169t-18 -190q0 -61 13 -112.5t43 -88.5t78 -57.5t119 -20.5 q68 0 137.5 17.5t114.5 35.5q20 10 25.5 5t11.5 -15l39 -86q12 -27 -16 -43q-78 -41 -162 -54t-156 -16l-41 -90q100 -6 139.5 -52t39.5 -99q0 -31 -15.5 -61.5t-46.5 -55.5t-74 -40t-98 -15q-49 0 -96 10t-76 27q-10 4 -12 10t6 20l18 41q10 16 16.5 16.5t18.5 -3.5 q29 -10 59.5 -16.5t59.5 -6.5q53 0 82 19.5t29 56.5q0 35 -31 50t-76 15h-34t-17 9q-10 10 -8 21t10 26l55 123q-158 18 -243 123.5t-85 300.5z" />
<glyph unicode="&#xe8;" horiz-adv-x="1005" d="M102 391q0 184 41 317.5t114 219.5t170 128t208 42q102 0 168.5 -28t106.5 -68.5t56.5 -90t16.5 -94.5q0 -182 -127 -265t-393 -83q-43 0 -90 2t-97 10q-6 -47 -6 -86q-2 -135 56.5 -198.5t193.5 -63.5q66 0 127.5 17.5t108.5 39.5q16 6 22 4.5t13 -14.5l43 -86 q10 -25 -19 -41q-78 -45 -164 -60.5t-164 -15.5q-195 0 -290 98.5t-95 315.5zM295 612q41 -4 85 -6t79 -2q104 0 175 12.5t114 36t60 60.5t17 86q0 57 -44.5 103t-157.5 46q-135 0 -218 -84t-110 -252zM399 1511q-16 18 9 31l129 62q16 6 23 0.5t15 -15.5l191 -317 q8 -16 6 -21.5t-12 -13.5l-53 -35q-12 -6 -21.5 -4t-23.5 16z" />
<glyph unicode="&#xe9;" horiz-adv-x="1005" d="M102 391q0 184 41 317.5t114 219.5t170 128t208 42q102 0 168.5 -28t106.5 -68.5t56.5 -90t16.5 -94.5q0 -182 -127 -265t-393 -83q-43 0 -90 2t-97 10q-6 -47 -6 -86q-2 -135 56.5 -198.5t193.5 -63.5q66 0 127.5 17.5t108.5 39.5q16 6 22 4.5t13 -14.5l43 -86 q10 -25 -19 -41q-78 -45 -164 -60.5t-164 -15.5q-195 0 -290 98.5t-95 315.5zM295 612q41 -4 85 -6t79 -2q104 0 175 12.5t114 36t60 60.5t17 86q0 57 -44.5 103t-157.5 46q-135 0 -218 -84t-110 -252zM580 1253l176 316q6 10 15 17t26 3l131 -37q16 -4 17 -13t-7 -19 l-256 -308q-12 -16 -21.5 -18t-21.5 2l-51 23q-25 8 -8 34z" />
<glyph unicode="&#xea;" horiz-adv-x="1005" d="M102 391q0 184 41 317.5t114 219.5t170 128t208 42q102 0 168.5 -28t106.5 -68.5t56.5 -90t16.5 -94.5q0 -182 -127 -265t-393 -83q-43 0 -90 2t-97 10q-6 -47 -6 -86q-2 -135 56.5 -198.5t193.5 -63.5q66 0 127.5 17.5t108.5 39.5q16 6 22 4.5t13 -14.5l43 -86 q10 -25 -19 -41q-78 -45 -164 -60.5t-164 -15.5q-195 0 -290 98.5t-95 315.5zM295 612q41 -4 85 -6t79 -2q104 0 175 12.5t114 36t60 60.5t17 86q0 57 -44.5 103t-157.5 46q-135 0 -218 -84t-110 -252zM346 1231q-12 12 2 29l293 266q43 37 82 37q25 0 42 -7.5t36 -29.5 l207 -262q12 -16 10 -25.5t-14 -19.5l-37 -31q-18 -12 -39 4l-230 192l-284 -196q-20 -16 -37 4z" />
<glyph unicode="&#xeb;" horiz-adv-x="1005" d="M102 391q0 184 41 317.5t114 219.5t170 128t208 42q102 0 168.5 -28t106.5 -68.5t56.5 -90t16.5 -94.5q0 -182 -127 -265t-393 -83q-43 0 -90 2t-97 10q-6 -47 -6 -86q-2 -135 56.5 -198.5t193.5 -63.5q66 0 127.5 17.5t108.5 39.5q16 6 22 4.5t13 -14.5l43 -86 q10 -25 -19 -41q-78 -45 -164 -60.5t-164 -15.5q-195 0 -290 98.5t-95 315.5zM295 612q41 -4 85 -6t79 -2q104 0 175 12.5t114 36t60 60.5t17 86q0 57 -44.5 103t-157.5 46q-135 0 -218 -84t-110 -252zM412 1358q0 23 10 45t27.5 39.5t40 28t47.5 10.5q37 0 65.5 -29 t28.5 -68q0 -25 -12.5 -46t-31 -38.5t-41 -27.5t-42.5 -10q-39 0 -66.5 28.5t-25.5 67.5zM768 1358q0 47 40 85t87 38q39 0 66.5 -29t27.5 -68q0 -23 -11 -45t-29.5 -39.5t-41 -27.5t-43.5 -10q-41 0 -68.5 28.5t-27.5 67.5z" />
<glyph unicode="&#xec;" horiz-adv-x="516" d="M92 1511q-16 18 8 31l129 62q16 6 23.5 0.5t15.5 -15.5l191 -317q8 -16 6 -21.5t-12 -13.5l-54 -35q-12 -6 -21 -4t-24 16zM121 31l141 1013q4 20 13.5 25.5t25.5 5.5h107q18 0 25 -5t3 -26l-141 -1013q-4 -20 -11.5 -25.5t-25.5 -5.5h-106q-16 0 -25.5 5t-5.5 26z" />
<glyph unicode="&#xed;" horiz-adv-x="516" d="M121 31l141 1013q4 20 13.5 25.5t25.5 5.5h107q18 0 25 -5t3 -26l-141 -1013q-4 -20 -11.5 -25.5t-25.5 -5.5h-106q-16 0 -25.5 5t-5.5 26zM322 1253l176 316q6 10 15 17t26 3l131 -37q16 -4 17 -13t-7 -19l-256 -308q-12 -16 -21.5 -18t-21.5 2l-51 23q-25 8 -8 34z" />
<glyph unicode="&#xee;" horiz-adv-x="516" d="M51 1229q-12 12 2 28l293 267q43 37 82 37q25 0 42 -7.5t36 -29.5l207 -262q12 -16 10 -25.5t-14 -19.5l-37 -31q-18 -12 -39 4l-230 192l-284 -196q-20 -16 -37 4zM121 31l141 1013q4 20 13.5 25.5t25.5 5.5h107q18 0 25 -5t3 -26l-141 -1013q-4 -20 -11.5 -25.5 t-25.5 -5.5h-106q-16 0 -25.5 5t-5.5 26z" />
<glyph unicode="&#xef;" horiz-adv-x="516" d="M113 1358q0 23 10 45t27.5 39.5t40 28t47.5 10.5q37 0 65.5 -29t28.5 -68q0 -25 -12.5 -46t-31 -38.5t-41 -27.5t-42.5 -10q-39 0 -66.5 28.5t-25.5 67.5zM121 31l141 1013q4 20 13.5 25.5t25.5 5.5h107q18 0 25 -5t3 -26l-141 -1013q-4 -20 -11.5 -25.5t-25.5 -5.5h-106 q-16 0 -25.5 5t-5.5 26zM469 1358q0 47 40 85t87 38q39 0 66.5 -29t27.5 -68q0 -23 -11 -45t-29.5 -39.5t-41 -27.5t-43.5 -10q-41 0 -68.5 28.5t-27.5 67.5z" />
<glyph unicode="&#xf0;" horiz-adv-x="1087" d="M96 360q0 106 31 216t95.5 198t163.5 144.5t239 56.5q57 0 116.5 -12.5t112.5 -40.5l8 6q-14 80 -47 154.5t-80 131.5l-139 -108q-12 -10 -18.5 -11t-16.5 11l-31 37q-8 12 -6 17t15 16l135 106q-70 66 -162 125q-16 12 -14 21.5t6 15.5l45 59q18 25 27.5 23t19.5 -6 q115 -63 197 -140l151 117q12 10 19.5 13t17.5 -13l27 -33q10 -14 9 -20t-16 -19l-145 -114q98 -117 140 -264.5t42 -315.5q0 -55 -7 -132t-28.5 -160t-60.5 -164.5t-100.5 -146.5t-150.5 -104.5t-212 -39.5q-113 0 -186.5 31.5t-117.5 84t-61.5 121t-17.5 139.5zM270 375 q0 -47 9.5 -91t35 -79t69.5 -56.5t116 -21.5q117 0 189.5 60.5t112.5 147.5t54 185t14 176v29.5t-2 24.5q-68 49 -134 64t-113 15q-104 0 -173 -46t-108 -115.5t-54.5 -148.5t-15.5 -144z" />
<glyph unicode="&#xf1;" horiz-adv-x="1116" d="M82 31l125 893q18 137 147 155q23 4 54.5 7.5t66.5 6.5t67.5 4t57.5 1q129 0 217 -29t139.5 -91.5t65.5 -160.5t-6 -237l-76 -549q-4 -20 -11 -25.5t-26 -5.5h-108q-16 0 -23.5 5t-5.5 26l78 542q12 92 9 161t-32.5 115t-91 68.5t-164.5 22.5q-23 0 -71 -3t-115 -13 l-125 -893q-4 -20 -11 -25.5t-24 -5.5h-108q-16 0 -24.5 5t-4.5 26zM304 1324q-3 5 7 19q41 63 97.5 102.5t128.5 39.5q35 0 64.5 -11.5t57 -24.5t53 -24.5t54.5 -11.5q63 0 104 60q10 14 15.5 16t15.5 -2l80 -29q25 -8 16 -31q-76 -153 -221 -153q-35 0 -65.5 11t-60 24.5 t-59.5 25t-63 11.5q-53 0 -106 -60q-8 -10 -14.5 -14t-18.5 4l-70 35q-12 8 -15 13z" />
<glyph unicode="&#xf2;" horiz-adv-x="1105" d="M102 393q0 172 43 303t117 220.5t172 135.5t209 46q197 0 302.5 -112t105.5 -318q0 -158 -38 -286t-108.5 -218t-172 -138.5t-228.5 -48.5q-195 0 -298.5 105.5t-103.5 310.5zM276 410q0 -129 57.5 -206t190.5 -77q100 0 167 50t108 129t58 175.5t17 188.5q0 57 -12 108 t-39.5 89t-74.5 59.5t-117 21.5q-94 0 -161 -46t-110 -121.5t-63.5 -173t-20.5 -197.5zM408 1511q-16 18 8 31l129 62q16 6 23 0.5t16 -15.5l190 -317q8 -16 6 -21.5t-12 -13.5l-53 -35q-12 -6 -21.5 -4t-23.5 16z" />
<glyph unicode="&#xf3;" horiz-adv-x="1105" d="M102 393q0 172 43 303t117 220.5t172 135.5t209 46q197 0 302.5 -112t105.5 -318q0 -158 -38 -286t-108.5 -218t-172 -138.5t-228.5 -48.5q-195 0 -298.5 105.5t-103.5 310.5zM276 410q0 -129 57.5 -206t190.5 -77q100 0 167 50t108 129t58 175.5t17 188.5q0 57 -12 108 t-39.5 89t-74.5 59.5t-117 21.5q-94 0 -161 -46t-110 -121.5t-63.5 -173t-20.5 -197.5zM596 1253l176 316q6 10 15.5 17t25.5 3l131 -37q16 -4 17.5 -13t-7.5 -19l-256 -308q-12 -16 -21 -18t-22 2l-51 23q-25 8 -8 34z" />
<glyph unicode="&#xf4;" horiz-adv-x="1105" d="M102 393q0 172 43 303t117 220.5t172 135.5t209 46q197 0 302.5 -112t105.5 -318q0 -158 -38 -286t-108.5 -218t-172 -138.5t-228.5 -48.5q-195 0 -298.5 105.5t-103.5 310.5zM276 410q0 -129 57.5 -206t190.5 -77q100 0 167 50t108 129t58 175.5t17 188.5q0 57 -12 108 t-39.5 89t-74.5 59.5t-117 21.5q-94 0 -161 -46t-110 -121.5t-63.5 -173t-20.5 -197.5zM352 1231q-12 12 2 29l293 266q43 37 82 37q25 0 42 -7.5t36 -29.5l207 -262q12 -16 10 -25.5t-14 -19.5l-37 -31q-18 -12 -39 4l-229 192l-285 -196q-20 -16 -37 4z" />
<glyph unicode="&#xf5;" horiz-adv-x="1105" d="M102 393q0 172 43 303t117 220.5t172 135.5t209 46q197 0 302.5 -112t105.5 -318q0 -158 -38 -286t-108.5 -218t-172 -138.5t-228.5 -48.5q-195 0 -298.5 105.5t-103.5 310.5zM276 410q0 -129 57.5 -206t190.5 -77q100 0 167 50t108 129t58 175.5t17 188.5q0 57 -12 108 t-39.5 89t-74.5 59.5t-117 21.5q-94 0 -161 -46t-110 -121.5t-63.5 -173t-20.5 -197.5zM353.5 1322q-3.5 5 6.5 19q41 63 97.5 102.5t128.5 39.5q35 0 64.5 -11.5t57 -24.5t53 -24.5t54.5 -11.5q63 0 105 59q10 14 15 16.5t15 -1.5l80 -29q25 -8 17 -31q-77 -153 -222 -153 q-35 0 -65.5 11t-60 24.5t-59.5 24.5t-62 11q-53 0 -107 -59q-8 -10 -14 -14t-19 4l-69 35q-12 8 -15.5 13z" />
<glyph unicode="&#xf6;" horiz-adv-x="1105" d="M102 393q0 172 43 303t117 220.5t172 135.5t209 46q197 0 302.5 -112t105.5 -318q0 -158 -38 -286t-108.5 -218t-172 -138.5t-228.5 -48.5q-195 0 -298.5 105.5t-103.5 310.5zM276 410q0 -129 57.5 -206t190.5 -77q100 0 167 50t108 129t58 175.5t17 188.5q0 57 -12 108 t-39.5 89t-74.5 59.5t-117 21.5q-94 0 -161 -46t-110 -121.5t-63.5 -173t-20.5 -197.5zM403 1358q0 23 10.5 45t28 39.5t39.5 28t47 10.5q37 0 66 -29t29 -68q0 -25 -12.5 -46t-31 -38.5t-41 -27.5t-42.5 -10q-39 0 -67 28.5t-26 67.5zM760 1358q0 47 40 85t87 38 q39 0 66.5 -29t27.5 -68q0 -23 -11.5 -45t-29.5 -39.5t-40.5 -27.5t-43.5 -10q-41 0 -68.5 28.5t-27.5 67.5z" />
<glyph unicode="&#xf7;" d="M141 651l17 107q4 16 10 25.5t25 9.5h905q18 0 22 -9.5t2 -25.5l-14 -107q-4 -18 -10 -25.5t-27 -7.5h-903q-20 0 -24.5 7.5t-2.5 25.5zM440 291q0 33 13.5 63.5t35 54t51 37t62.5 13.5q55 0 89 -35t34 -88q0 -72 -48 -119t-114 -47q-55 0 -89 34t-34 87zM549 1055 q0 70 47 119t115 49q55 0 89 -34t34 -87q0 -70 -49.5 -119t-114.5 -49q-53 0 -87 33.5t-34 87.5z" />
<glyph unicode="&#xf8;" horiz-adv-x="1105" d="M55 35q-14 14 4 33l91 92q-47 94 -48 233q0 172 43 303t117 220.5t172 135.5t209 46q201 0 303 -117l96 96q10 10 16.5 9t16.5 -7l29 -32q6 -6 6 -12.5t-10 -16.5l-103 -109q53 -96 54 -241q0 -158 -38 -286t-108.5 -218t-172 -138.5t-228.5 -48.5q-205 0 -305 113 l-84 -84q-18 -18 -29 -2zM276 410q0 -63 13 -109l538 557q-29 41 -76.5 65.5t-119.5 24.5q-94 0 -161 -46t-110 -121.5t-63.5 -173t-20.5 -197.5zM324 219q55 -92 200 -92q100 0 167 50t108 129t58 175.5t17 188.5q0 57 -12 104z" />
<glyph unicode="&#xf9;" horiz-adv-x="1099" d="M135 253q-8 97 12 236l76 558q4 20 12.5 25t24.5 5h109q16 0 23 -5t3 -25l-76 -547q-14 -100 -13 -170t26.5 -113t83 -61.5t155.5 -18.5q23 0 76 3t119 14l127 893q4 20 11 25t24 5h110q16 0 23.5 -5t3.5 -25l-125 -895q-18 -131 -147 -156q-29 -4 -64 -7t-69.5 -5 t-66.5 -3t-56 -1q-133 0 -218.5 27.5t-130.5 88t-53 157.5zM399 1511q-16 18 9 31l129 62q16 6 23 0.5t15 -15.5l191 -317q8 -16 6 -21.5t-12 -13.5l-53 -35q-12 -6 -21.5 -4t-23.5 16z" />
<glyph unicode="&#xfa;" horiz-adv-x="1099" d="M135 253q-8 97 12 236l76 558q4 20 12.5 25t24.5 5h109q16 0 23 -5t3 -25l-76 -547q-14 -100 -13 -170t26.5 -113t83 -61.5t155.5 -18.5q23 0 76 3t119 14l127 893q4 20 11 25t24 5h110q16 0 23.5 -5t3.5 -25l-125 -895q-18 -131 -147 -156q-29 -4 -64 -7t-69.5 -5 t-66.5 -3t-56 -1q-133 0 -218.5 27.5t-130.5 88t-53 157.5zM600 1253l176 316q6 10 15.5 17t25.5 3l131 -37q16 -4 17.5 -13t-7.5 -19l-256 -308q-12 -16 -21 -18t-22 2l-51 23q-25 8 -8 34z" />
<glyph unicode="&#xfb;" horiz-adv-x="1099" d="M135 253q-8 97 12 236l76 558q4 20 12.5 25t24.5 5h109q16 0 23 -5t3 -25l-76 -547q-14 -100 -13 -170t26.5 -113t83 -61.5t155.5 -18.5q23 0 76 3t119 14l127 893q4 20 11 25t24 5h110q16 0 23.5 -5t3.5 -25l-125 -895q-18 -131 -147 -156q-29 -4 -64 -7t-69.5 -5 t-66.5 -3t-56 -1q-133 0 -218.5 27.5t-130.5 88t-53 157.5zM356 1231q-12 12 2 29l293 266q43 37 82 37q25 0 42.5 -7.5t35.5 -29.5l207 -262q12 -16 10 -25.5t-14 -19.5l-37 -31q-18 -12 -39 4l-229 192l-285 -196q-20 -16 -37 4z" />
<glyph unicode="&#xfc;" horiz-adv-x="1099" d="M135 253q-8 97 12 236l76 558q4 20 12.5 25t24.5 5h109q16 0 23 -5t3 -25l-76 -547q-14 -100 -13 -170t26.5 -113t83 -61.5t155.5 -18.5q23 0 76 3t119 14l127 893q4 20 11 25t24 5h110q16 0 23.5 -5t3.5 -25l-125 -895q-18 -131 -147 -156q-29 -4 -64 -7t-69.5 -5 t-66.5 -3t-56 -1q-133 0 -218.5 27.5t-130.5 88t-53 157.5zM418 1358q0 23 10 45t27.5 39.5t40 28t47.5 10.5q37 0 65.5 -29t28.5 -68q0 -25 -12.5 -46t-31 -38.5t-41 -27.5t-42.5 -10q-39 0 -66.5 28.5t-25.5 67.5zM774 1358q0 47 40 85t87 38q39 0 66.5 -29t27.5 -68 q0 -23 -11 -45t-29.5 -39.5t-41 -27.5t-43.5 -10q-41 0 -68.5 28.5t-27.5 67.5z" />
<glyph unicode="&#xfd;" horiz-adv-x="972" d="M-138.5 -371q-4.5 6 3.5 27l35 86q8 20 15 21t30 -7q57 -20 113.5 -31.5t86.5 -11.5q66 0 108 34t83 124l63 139h-26q-29 0 -47.5 9.5t-28.5 62.5l-166 971q-4 23 16 22h123q25 0 27 -20q2 -10 8 -49t15.5 -92.5t18.5 -115t18.5 -114.5t15.5 -92t8 -49l61 -393h13 q4 8 17 38.5t31.5 71.5t40 88t41 88t34 72t18.5 39l233 508q4 10 10.5 15t22.5 5h129q25 0 15 -22l-572 -1239q-59 -131 -134 -193.5t-196 -62.5q-59 0 -128.5 16t-125.5 39q-25 10 -29.5 16zM520 1253l176 316q6 10 15.5 17t25.5 3l131 -37q16 -4 17.5 -13t-6.5 -19 l-256 -308q-12 -16 -21.5 -18t-21.5 2l-52 23q-25 8 -8 34z" />
<glyph unicode="&#xfe;" horiz-adv-x="1110" d="M23 -385l260 1853q4 18 12 23.5t24 5.5h111q16 0 23.5 -5t3.5 -24l-56 -397q66 16 132.5 21.5t125.5 5.5q106 0 180 -33t121.5 -91.5t69 -139t21.5 -179.5q0 -145 -37 -269t-106.5 -215t-172 -142.5t-231.5 -51.5q-53 0 -116.5 6.5t-135.5 28.5l-57 -397 q-2 -18 -9.5 -23.5t-23.5 -5.5h-111q-16 0 -24.5 5.5t-3.5 23.5zM274 168q72 -23 125.5 -30t100.5 -7q74 0 141.5 28.5t118.5 90t81.5 159t30.5 232.5q0 166 -69.5 234.5t-192.5 68.5q-49 0 -116.5 -10t-114.5 -29q-4 -23 -12.5 -83t-19.5 -139t-23.5 -165t-22.5 -160.5 t-17.5 -127t-9.5 -62.5z" />
<glyph unicode="&#xff;" horiz-adv-x="972" d="M-138.5 -371q-4.5 6 3.5 27l35 86q8 20 15 21t30 -7q57 -20 113.5 -31.5t86.5 -11.5q66 0 108 34t83 124l63 139h-26q-29 0 -47.5 9.5t-28.5 62.5l-166 971q-4 23 16 22h123q25 0 27 -20q2 -10 8 -49t15.5 -92.5t18.5 -115t18.5 -114.5t15.5 -92t8 -49l61 -393h13 q4 8 17 38.5t31.5 71.5t40 88t41 88t34 72t18.5 39l233 508q4 10 10.5 15t22.5 5h129q25 0 15 -22l-572 -1239q-59 -131 -134 -193.5t-196 -62.5q-59 0 -128.5 16t-125.5 39q-25 10 -29.5 16zM336 1358q0 23 10 45t27.5 39.5t40 28t47.5 10.5q37 0 65.5 -29t28.5 -68 q0 -25 -12.5 -46t-30.5 -38.5t-40.5 -27.5t-43.5 -10q-39 0 -66.5 28.5t-25.5 67.5zM692 1358q0 47 40 85t87 38q39 0 66.5 -29t27.5 -68q0 -23 -11 -45t-29.5 -39.5t-41 -27.5t-43.5 -10q-41 0 -68.5 28.5t-27.5 67.5z" />
<glyph unicode="&#x152;" horiz-adv-x="1800" d="M143 516q0 223 50.5 398.5t141.5 296t219 183t284 62.5q80 0 151.5 -15.5t128.5 -45.5q72 41 187 41h503q25 0 30 -11.5t3 -29.5l-12 -88q-4 -25 -12.5 -33t-30.5 -8h-477q-82 0 -124 -38t-55 -118l-36 -266h604q23 0 30 -10.5t3 -32.5l-13 -78q-4 -20 -11 -30.5 t-30 -10.5h-604l-53 -356q-8 -68 20.5 -111t114.5 -43h547q25 0 31 -10t2 -33l-13 -88q-4 -20 -11 -30.5t-32 -10.5h-549q-63 0 -110 11.5t-82 31.5q-127 -66 -289 -66q-238 0 -372 140.5t-134 398.5zM326 539q0 -178 79 -286t259 -108q98 0 182 39q-10 35 -9 79t7 87 l102 733q6 47 17.5 91.5t31.5 82.5q-70 29 -170 29q-137 0 -232 -63.5t-154.5 -168t-86 -239.5t-26.5 -276z" />
<glyph unicode="&#x153;" horiz-adv-x="1771" d="M102 393q0 172 43 303t117 220.5t172 135.5t209 46q131 0 222 -53.5t134 -155.5q72 106 175.5 157.5t226.5 51.5q102 0 168.5 -28t106.5 -68.5t56.5 -90t16.5 -94.5q0 -182 -127 -265t-393 -83q-43 0 -90 2t-97 10q-6 -49 -6 -86q0 -141 58.5 -201.5t191.5 -60.5 q68 0 128.5 17.5t107.5 39.5q16 6 22 4.5t12 -14.5l43 -86q12 -27 -18 -41q-78 -45 -164 -60.5t-164 -15.5q-135 0 -221 48.5t-125 152.5q-70 -98 -172 -149.5t-231 -51.5q-195 0 -298.5 105.5t-103.5 310.5zM276 408q0 -129 57.5 -205t190.5 -76q100 0 167 50t108 129 t58 175.5t17 188.5q0 57 -12 108t-39.5 89t-74.5 59.5t-117 21.5q-94 0 -161 -46t-110 -121.5t-63.5 -173t-20.5 -199.5zM1061 612q41 -4 84 -6t78 -2q106 0 176.5 12.5t113.5 36t60.5 60.5t17.5 86q0 29 -10 55.5t-33.5 48t-62.5 33.5t-94 12q-135 0 -219.5 -84 t-110.5 -252z" />
<glyph unicode="&#x178;" horiz-adv-x="1120" d="M170 1413q-4 6 1 14.5t17 8.5h138q16 0 22 -5.5t12 -21.5l134 -352l110 -316h8l207 328l223 340q10 16 18.5 21.5t24.5 5.5h150q10 0 11 -8.5t-3 -14.5l-561 -840l-76 -542q-4 -20 -10 -25.5t-25 -5.5h-114q-16 0 -23.5 5t-5.5 26l76 542zM434 1659q0 23 10.5 45 t27.5 39.5t39.5 28t47.5 10.5q37 0 65.5 -29t28.5 -67q0 -25 -12 -46.5t-30.5 -39t-41 -27.5t-43.5 -10q-39 0 -66.5 28.5t-25.5 67.5zM791 1659q0 47 40 85t87 38q39 0 66.5 -29t27.5 -67q0 -23 -11.5 -45.5t-30 -40t-41 -27.5t-42.5 -10q-41 0 -68.5 28.5t-27.5 67.5z" />
<glyph unicode="&#x2c6;" horiz-adv-x="1126" d="M352 1229q-12 12 2 28l293 267q43 37 82 37q25 0 42 -7.5t36 -29.5l207 -262q12 -16 10 -25.5t-14 -19.5l-37 -31q-18 -12 -39 4l-229 192l-285 -196q-20 -16 -37 4z" />
<glyph unicode="&#x2dc;" horiz-adv-x="1122" d="M359.5 1320q-3.5 5 7.5 19q41 63 97 102.5t128 39.5q35 0 64.5 -11.5t57 -24.5t53.5 -24.5t54 -11.5q63 0 105 59q10 14 15 16.5t15 -1.5l80 -29q25 -8 17 -31q-77 -153 -222 -153q-35 0 -65.5 11t-60 24.5t-59.5 24.5t-62 11q-53 0 -107 -59q-8 -10 -14 -14t-19 4 l-69 35q-12 8 -15.5 13z" />
<glyph unicode="&#x2000;" horiz-adv-x="935" />
<glyph unicode="&#x2001;" horiz-adv-x="1870" />
<glyph unicode="&#x2002;" horiz-adv-x="935" />
<glyph unicode="&#x2003;" horiz-adv-x="1870" />
<glyph unicode="&#x2004;" horiz-adv-x="623" />
<glyph unicode="&#x2005;" horiz-adv-x="467" />
<glyph unicode="&#x2006;" horiz-adv-x="311" />
<glyph unicode="&#x2007;" horiz-adv-x="311" />
<glyph unicode="&#x2008;" horiz-adv-x="233" />
<glyph unicode="&#x2009;" horiz-adv-x="374" />
<glyph unicode="&#x200a;" horiz-adv-x="103" />
<glyph unicode="&#x2010;" horiz-adv-x="655" d="M78 516l20 139q2 16 8.5 24.5t24.5 8.5h461q16 0 21 -8t3 -25l-22 -139q-2 -16 -7 -24.5t-24 -8.5h-459q-20 0 -25 8.5t-1 24.5z" />
<glyph unicode="&#x2011;" horiz-adv-x="655" d="M78 516l20 139q2 16 8.5 24.5t24.5 8.5h461q16 0 21 -8t3 -25l-22 -139q-2 -16 -7 -24.5t-24 -8.5h-459q-20 0 -25 8.5t-1 24.5z" />
<glyph unicode="&#x2012;" horiz-adv-x="655" d="M78 516l20 139q2 16 8.5 24.5t24.5 8.5h461q16 0 21 -8t3 -25l-22 -139q-2 -16 -7 -24.5t-24 -8.5h-459q-20 0 -25 8.5t-1 24.5z" />
<glyph unicode="&#x2013;" horiz-adv-x="993" d="M78 538.5q-4 8.5 0 24.5l12 99q4 16 10 24t25 8h831q18 0 23.5 -8t1.5 -24l-12 -99q-4 -16 -10.5 -24.5t-24.5 -8.5h-834q-18 0 -22 8.5z" />
<glyph unicode="&#x2014;" horiz-adv-x="1986" d="M72 563l12 99q4 16 10 24t25 8h1839q18 0 22.5 -8t-0.5 -24l-12 -99q-4 -16 -10 -24.5t-25 -8.5h-1837q-18 0 -22 8.5t-2 24.5z" />
<glyph unicode="&#x2018;" horiz-adv-x="577" d="M201.5 955.5q-4.5 11.5 1.5 23.5l198 457q8 20 15.5 27t27.5 7h58q39 0 33 -28l-99 -461q-2 -14 -11 -25.5t-26 -11.5h-170q-23 0 -27.5 11.5z" />
<glyph unicode="&#x2019;" horiz-adv-x="577" d="M244 973l96 463q4 12 11 24.5t26 12.5h168q23 0 29 -12.5t1 -24.5l-200 -457q-6 -20 -14.5 -27.5t-28.5 -7.5h-60q-39 0 -28 29z" />
<glyph unicode="&#x201a;" horiz-adv-x="473" d="M31 -225q23 117 48 229.5t48 228.5q4 12 12 23.5t27 11.5h168q16 0 23.5 -7t7.5 -17v-4l-3 -2v-5q-49 -115 -98 -225t-98 -227q-10 -20 -17.5 -27.5t-25.5 -7.5h-60q-33 0 -32 18v11z" />
<glyph unicode="&#x201c;" horiz-adv-x="845" d="M201.5 956.5q-4.5 12.5 1.5 24.5l198 457q8 20 15.5 27.5t27.5 7.5h58q39 0 33 -29l-99 -463q-2 -12 -11 -24.5t-26 -12.5h-170q-23 0 -27.5 12.5zM543 981l198 457q8 20 15.5 27.5t27.5 7.5h60q35 0 28 -29l-94 -463q-4 -12 -12 -24.5t-27 -12.5h-170q-20 0 -25 12.5 t-1 24.5z" />
<glyph unicode="&#x201d;" horiz-adv-x="845" d="M203 975l96 461q4 14 11 25.5t26 11.5h168q23 0 29 -12.5t2 -22.5l-199 -457q-8 -20 -16.5 -28.5t-26.5 -8.5h-62q-39 0 -28 31zM543 975l96 461q2 14 10 25.5t29 11.5h168q20 0 26.5 -12.5t-0.5 -22.5l-196 -457q-8 -20 -16.5 -28.5t-28.5 -8.5h-60q-35 0 -28 31z" />
<glyph unicode="&#x201e;" horiz-adv-x="792" d="M33 -227l96 463q4 12 12.5 23t24.5 11h168q23 0 29 -11t2 -23l-199 -457q-10 -18 -16.5 -26.5t-24.5 -8.5h-59q-18 0 -27.5 7t-5.5 22zM352 -227l97 463q4 12 12 23t24 11h168q23 0 29 -11t2 -23l-199 -457q-10 -18 -16 -26.5t-25 -8.5h-59q-18 0 -27.5 7t-5.5 22z" />
<glyph unicode="&#x2022;" horiz-adv-x="800" d="M195 569q0 59 22.5 112.5t60 93.5t89 62.5t106.5 22.5q92 0 151.5 -61.5t59.5 -153.5q0 -59 -23.5 -110.5t-62.5 -90t-90 -61.5t-105 -23q-92 0 -150 59.5t-58 149.5z" />
<glyph unicode="&#x2026;" horiz-adv-x="1468" d="M74 100q0 33 13 64t35.5 53.5t52.5 35.5t61 13q57 0 90.5 -34.5t33.5 -88.5q0 -35 -13 -64.5t-35.5 -53t-52.5 -37t-62 -13.5q-53 0 -88 36t-35 89zM557 98q0 70 49.5 119t112.5 49q55 0 89 -34.5t34 -88.5q0 -35 -13.5 -64.5t-36 -53t-52 -37t-62.5 -13.5q-53 0 -87 35 t-34 88zM1038 100q0 33 13.5 64t37 53.5t53 35.5t62.5 13q53 0 87 -34.5t34 -88.5q0 -35 -13.5 -64.5t-36 -53t-51 -37t-61.5 -13.5q-53 0 -89 36t-36 89z" />
<glyph unicode="&#x202f;" horiz-adv-x="374" />
<glyph unicode="&#x2039;" horiz-adv-x="634" d="M141 500q2 25 17.5 46t25.5 38l238 321q12 16 25.5 26.5t46.5 10.5h98q18 0 22 -12t-8 -29l-293 -405l189 -394q12 -39 -31 -39h-102q-31 0 -40.5 10.5t-19.5 26.5l-151 322q-8 16 -14.5 38.5t-2.5 39.5z" />
<glyph unicode="&#x203a;" horiz-adv-x="634" d="M50.5 73.5q-5.5 10.5 8.5 28.5l297 396l-178 403q-8 16 1 28.5t28 12.5h100q29 0 39 -10t19 -27l147 -321q6 -16 14.5 -37t3.5 -47q-4 -16 -16 -39t-22 -37l-244 -324q-10 -16 -24.5 -26.5t-45.5 -10.5h-104q-18 0 -23.5 10.5z" />
<glyph unicode="&#x205f;" horiz-adv-x="467" />
<glyph unicode="&#x20ac;" d="M94 547l10 55q2 16 8.5 24.5t24.5 8.5h807q18 0 23.5 -8.5t3.5 -24.5l-10 -55q-2 -18 -8.5 -25.5t-24.5 -7.5h-533q-18 -180 64 -275.5t274 -95.5q68 0 144.5 19.5t144.5 48.5q23 10 29 2t10 -18l33 -82q10 -25 3 -33t-20 -17q-43 -25 -93 -41t-102.5 -26t-104.5 -14.5 t-95 -4.5q-111 0 -202 31t-153.5 96.5t-93 167t-18.5 242.5h-96q-16 0 -20.5 7t-4.5 26zM129 788l8 56q2 16 8.5 24.5t26.5 8.5h94q63 272 217 397t367 125q74 0 166 -15.5t174 -62.5q8 -4 14 -11t-4 -30l-43 -88q-10 -27 -37 -14q-57 25 -121.5 41t-142.5 16 q-160 0 -259 -92t-144 -266h524q20 0 24.5 -8.5t2.5 -24.5l-9 -56q-2 -18 -8 -25t-26 -7h-807q-18 0 -22.5 7t-2.5 25z" />
<glyph unicode="&#x2122;" horiz-adv-x="1667" d="M121 1352v59q0 25 22 25h584q23 0 23 -25v-59q0 -25 -23 -25h-235v-674q0 -16 -6.5 -20t-18.5 -4h-74q-12 0 -18 4t-6 20v674h-226q-23 0 -22 25zM827 651v725q0 25 11.5 42.5t46.5 17.5h41q31 0 49 -12.5t31 -43.5q2 -2 13 -29.5t26.5 -67.5t35 -86t34.5 -87t26.5 -68.5 t13.5 -29.5q16 -39 29.5 -74t29.5 -74h9q14 39 29.5 79t29.5 75l148 362q10 31 29.5 43.5t47.5 12.5h45q35 0 46.5 -17.5t11.5 -42.5v-725q0 -16 -7.5 -19t-17.5 -3h-72q-14 0 -18 3t-4 19v586h-6l-47 -125l-138 -336q-10 -27 -21 -37t-40 -10h-41q-29 0 -41 10.5t-22 36.5 l-131 320l-54 143h-4v-588q0 -16 -5 -19t-19 -3h-72q-12 0 -17.5 3t-5.5 19z" />
<glyph unicode="&#xe000;" horiz-adv-x="1075" d="M0 0v1075h1075v-1075h-1075z" />
</font>
</defs>
</svg>
